<svg xmlns="http://www.w3.org/2000/svg" xmlns:xlink="http://www.w3.org/1999/xlink" width="40.261" height="34.519" viewBox="0 0 40.261 34.519">
  <defs>
    <linearGradient id="linear-gradient" x1="0.5" x2="0.5" y2="1" gradientUnits="objectBoundingBox">
      <stop offset="0" stop-color="#3e5fa8"/>
      <stop offset="1" stop-color="#2aa977"/>
    </linearGradient>
  </defs>
  <g id="_211873_person_stalker_icon" data-name="211873_person_stalker_icon" transform="translate(-32 -63.9)">
    <path id="Path_622" data-name="Path 622" d="M308.188,137.313c-3.721-1.411-3.5-.845-3.5-3.46,0-1.69.836-1.069,1.366-4.287.207-1.267.377-.422.818-2.453.234-1.06-.162-1.141-.108-1.645s.09-.962.18-2a5.184,5.184,0,0,0-10.317,0c.081,1.042.135,1.492.18,2s-.341.584-.108,1.645c.44,2.031.611,1.177.818,2.453.53,3.217,1.357,2.606,1.357,4.287,0,1.2.279,1.708-1.339,2.471.485.171,1.051.377,1.734.638,4.889,1.86,4.772,3.667,4.9,4.52.09.584.135,5.239.153,6.9h8.78s0-7.234-.135-8.079C312.87,139.641,311.981,138.76,308.188,137.313Z" transform="translate(-240.843 -49.966)" fill="url(#linear-gradient)"/>
    <path id="Path_623" data-name="Path 623" d="M61.208,98.419s0-1.267-.018-2.732c-.018-1.672-.063-3.595-.153-4.17-.135-.854-1.285-2-6.165-3.855-.674-.252-1.24-.458-1.734-.638-2.993-1.06-2.777-1.411-2.777-4.314,0-2.184,1.078-.764,1.761-4.907.27-1.636.485-.548,1.051-3.163.306-1.366-.207-1.474-.144-2.13s.126-1.24.234-2.579c.144-1.663-1.339-6.03-6.659-6.03s-6.794,4.359-6.659,6.03c.108,1.339.171,1.923.243,2.579s-.449.755-.144,2.13c.575,2.615.791,1.528,1.06,3.163.683,4.143,1.752,2.723,1.752,4.907,0,3.379.3,3.127-4.511,4.952-4.88,1.86-6.03,3-6.165,3.855-.18,1.087-.18,6.9-.18,6.9H61.208Z" fill="url(#linear-gradient)"/>
  </g>
</svg>
