<svg xmlns="http://www.w3.org/2000/svg" width="31.896" height="39.025" viewBox="0 0 31.896 39.025">
  <g id="_27-Document-Process" data-name="27-Document-Process" transform="translate(-2.5 0.5)">
    <path id="Path_588" data-name="Path 588" d="M33.551,7.474,26.421.345A1.188,1.188,0,0,0,25.578,0H6.565A3.565,3.565,0,0,0,3,3.565v30.9a3.565,3.565,0,0,0,3.565,3.565H30.331A3.565,3.565,0,0,0,33.9,34.46V8.318a1.188,1.188,0,0,0-.345-.844ZM31.519,34.46a1.188,1.188,0,0,1-1.188,1.188H6.565A1.188,1.188,0,0,1,5.377,34.46V3.565A1.188,1.188,0,0,1,6.565,2.377H24.389V7.13a2.377,2.377,0,0,0,2.377,2.377h4.753Z" transform="translate(0 0)" fill="#b9a005" stroke="#b9a005" stroke-width="1"/>
    <path id="Path_589" data-name="Path 589" d="M21.206,16.753l1.509-1.509-1.675-1.675-1.533,1.485a4.753,4.753,0,0,0-1.188-.5V12H15.941v2.543a4.753,4.753,0,0,0-1.188.5l-1.509-1.509-1.675,1.675,1.485,1.545a4.753,4.753,0,0,0-.5,1.188H10v2.377h2.543a4.753,4.753,0,0,0,.5,1.188l-1.509,1.509,1.675,1.675,1.545-1.485a4.753,4.753,0,0,0,1.188.5V26.26h2.377V23.717a4.753,4.753,0,0,0,1.188-.5l1.509,1.509,1.675-1.675-1.485-1.545a4.753,4.753,0,0,0,.5-1.188H24.26V17.941H21.717A4.753,4.753,0,0,0,21.206,16.753ZM17.13,21.506a2.377,2.377,0,1,1,2.377-2.377A2.377,2.377,0,0,1,17.13,21.506Z" transform="translate(1.318 2.26)" fill="#b9a005" stroke="#b9a005" stroke-width="1"/>
  </g>
</svg>
