<svg xmlns="http://www.w3.org/2000/svg" width="29.227" height="23.31" viewBox="0 0 29.227 23.31">
  <g id="_309038_police_secure_security_icon_1_" data-name="309038_police_secure_security_icon (1)" transform="translate(-1.921 -4)">
    <path id="Path_898" data-name="Path 898" d="M27.31,14.5s-3.351,8.013-11.655,8.013S4,14.5,4,14.5a56.561,56.561,0,0,0,11.509,1.457A61.292,61.292,0,0,0,27.31,14.5Z" transform="translate(0.95 4.797)" fill="#b9a005"/>
    <path id="Path_899" data-name="Path 899" d="M30.154,10.556C24.035,8.662,19.227,4,16.6,4S9.175,8.662,3.056,10.556a1.531,1.531,0,0,0-.874,2.331C3.493,14.635,4.95,14.781,4.95,16.82A55.127,55.127,0,0,0,16.6,18.277,55.127,55.127,0,0,0,28.26,16.82c0-2.04,1.457-2.185,2.622-4.079A1.448,1.448,0,0,0,30.154,10.556ZM16.6,15.655c-1.6,0-2.914-2.768-2.914-4.371A4.564,4.564,0,0,1,16.6,9.827a4.564,4.564,0,0,1,2.914,1.457C19.519,12.887,18.207,15.655,16.6,15.655Z" transform="translate(0 0)" fill="#b9a005"/>
  </g>
</svg>
