<svg xmlns="http://www.w3.org/2000/svg" width="31.74" height="25.314" viewBox="0 0 31.74 25.314">
  <g id="_309038_police_secure_security_icon" data-name="309038_police_secure_security_icon" transform="translate(-1.921 -4)">
    <path id="Path_849" data-name="Path 849" d="M29.314,14.5s-3.639,8.7-12.657,8.7S4,14.5,4,14.5a61.425,61.425,0,0,0,12.5,1.582A66.562,66.562,0,0,0,29.314,14.5Z" transform="translate(1.21 6.113)" fill="#fff"/>
    <path id="Path_850" data-name="Path 850" d="M32.582,11.12C25.937,9.063,20.715,4,17.868,4S9.8,9.063,3.154,11.12A1.663,1.663,0,0,0,2.2,13.651c1.424,1.9,3.006,2.057,3.006,4.272a59.867,59.867,0,0,0,12.657,1.582,59.867,59.867,0,0,0,12.657-1.582c0-2.215,1.582-2.373,2.848-4.43A1.573,1.573,0,0,0,32.582,11.12ZM17.868,16.657c-1.74,0-3.164-3.006-3.164-4.746a4.957,4.957,0,0,1,3.164-1.582,4.957,4.957,0,0,1,3.164,1.582C21.032,13.651,19.608,16.657,17.868,16.657Z" transform="translate(0)" fill="#fff"/>
  </g>
</svg>
