<svg xmlns="http://www.w3.org/2000/svg" width="30.005" height="32.008" viewBox="0 0 30.005 32.008">
  <g id="_33._Thinking" data-name="33. Thinking" transform="translate(-2 0.008)">
    <path id="Path_844" data-name="Path 844" d="M27,32H12a1,1,0,0,1-1-1V28H9a3,3,0,0,1-3-3V21.618L2.553,19.9a1,1,0,0,1-.385-1.45L6,12.691A13,13,0,0,1,29.551,5.414,1,1,0,1,1,27.93,6.586,11,11,0,0,0,8,13a1.006,1.006,0,0,1-.168.555L4.46,18.612,7.447,20.1A1,1,0,0,1,8,21v4a1,1,0,0,0,1,1h3a1,1,0,0,1,1,1v3H26V27.966a18.1,18.1,0,0,1,2.445-9.316,11,11,0,0,0,1.5-6.779,10.42,10.42,0,0,0-.287-1.62,1,1,0,1,1,1.936-.5,12.656,12.656,0,0,1,.342,1.927,12.969,12.969,0,0,1-1.775,8A16.1,16.1,0,0,0,28,27.966V31A1,1,0,0,1,27,32Z" fill="#fff"/>
    <path id="Path_845" data-name="Path 845" d="M14,28H12a1,1,0,0,1,0-2h2a1,1,0,0,1,0,2Z" fill="#fff"/>
    <path id="Path_846" data-name="Path 846" d="M20.072,19H17.928A1.931,1.931,0,0,1,16,17.189a1.927,1.927,0,0,1-2.529-.761L12.4,14.572A1.933,1.933,0,0,1,13.007,12,1.933,1.933,0,0,1,12.4,9.428l1.072-1.856A1.927,1.927,0,0,1,16,6.811,1.931,1.931,0,0,1,17.928,5h2.144A1.929,1.929,0,0,1,22,6.811a1.927,1.927,0,0,1,2.53.762L25.6,9.428h0A1.933,1.933,0,0,1,24.993,12a1.933,1.933,0,0,1,.606,2.571l-1.073,1.857a1.928,1.928,0,0,1-2.53.761A1.929,1.929,0,0,1,20.072,19ZM18,17h2a1.929,1.929,0,0,1,2.828-1.634l1-1.733a1.928,1.928,0,0,1,0-3.266l-1-1.733A1.929,1.929,0,0,1,20,7H18a1.929,1.929,0,0,1-2.828,1.633l-1,1.734a1.928,1.928,0,0,1,0,3.266l1,1.734A1.929,1.929,0,0,1,18,17ZM22.893,15.4ZM24.893,12.061ZM22.793,8.571Z" fill="#fff"/>
    <path id="Path_847" data-name="Path 847" d="M19,14a2,2,0,1,1,2-2A2,2,0,0,1,19,14Zm0-2Z" fill="#fff"/>
  </g>
</svg>
