<svg xmlns="http://www.w3.org/2000/svg" width="33.989" height="37.395" viewBox="0 0 33.989 37.395">
  <path id="_8725588_car_wash_icon" data-name="8725588_car_wash_icon" d="M11.347,6.1a1.7,1.7,0,0,0,1.207-.493l1.7-1.7A1.706,1.706,0,1,0,11.84,1.5l-1.7,1.7A1.7,1.7,0,0,0,11.347,6.1Zm6.8,0a1.7,1.7,0,0,0,1.207-.493l1.7-1.7A1.706,1.706,0,0,0,18.638,1.5l-1.7,1.7A1.7,1.7,0,0,0,18.145,6.1Zm6.8,0a1.7,1.7,0,0,0,1.207-.493l1.7-1.7A1.706,1.706,0,0,0,25.436,1.5l-1.7,1.7A1.7,1.7,0,0,0,24.943,6.1Zm4.113,19.748a1.292,1.292,0,0,0-.153-.306l-.2-.255-.255-.2a1.292,1.292,0,0,0-.306-.153,1.02,1.02,0,0,0-.323-.1,1.7,1.7,0,0,0-1.53.459,2.686,2.686,0,0,0-.2.255,1.292,1.292,0,0,0-.153.306,1.088,1.088,0,0,0-.1.306,2.311,2.311,0,0,0,0,.34,1.7,1.7,0,0,0,.493,1.19,1.546,1.546,0,0,0,.561.374,1.654,1.654,0,0,0,2.311-1.564,2.312,2.312,0,0,0,0-.34,1.088,1.088,0,0,0-.136-.306Zm3.127-7.665-2.311-6.9a5.1,5.1,0,0,0-4.826-3.4h-12.1a5.1,5.1,0,0,0-4.826,3.4l-2.311,6.9A5.1,5.1,0,0,0,2,23.1v6.8a5.1,5.1,0,0,0,3.4,4.792v2.005a1.7,1.7,0,0,0,3.4,0v-1.7H29.191v1.7a1.7,1.7,0,0,0,3.4,0V34.686a5.1,5.1,0,0,0,3.4-4.792V23.1A5.1,5.1,0,0,0,32.182,18.184ZM11.33,12.355A1.7,1.7,0,0,1,12.945,11.2h12.1a1.7,1.7,0,0,1,1.7,1.156L28.529,18H9.461ZM32.59,29.894a1.7,1.7,0,0,1-1.7,1.7H7.1a1.7,1.7,0,0,1-1.7-1.7V23.1a1.7,1.7,0,0,1,1.7-1.7H30.891a1.7,1.7,0,0,1,1.7,1.7Zm-11.9-5.1H17.3a1.7,1.7,0,0,0,0,3.4h3.4a1.7,1.7,0,0,0,0-3.4Zm-8.633,1.054a1.292,1.292,0,0,0-.153-.306l-.2-.255a1.757,1.757,0,0,0-2.413,0,2.685,2.685,0,0,0-.2.255,1.292,1.292,0,0,0-.153.306,1.088,1.088,0,0,0-.136.306,2.311,2.311,0,0,0,0,.34,1.7,1.7,0,0,0,3.4,0,2.311,2.311,0,0,0,0-.34,1.088,1.088,0,0,0-.136-.306Z" transform="translate(-2 -0.996)" fill="#fff"/>
</svg>
