<svg xmlns="http://www.w3.org/2000/svg" width="30.168" height="33.521" viewBox="0 0 30.168 33.521">
  <path id="_8726296_receipt_alt_icon" data-name="8726296_receipt_alt_icon" d="M14.732,12.056H24.788a1.676,1.676,0,1,0,0-3.352H14.732a1.676,1.676,0,0,0,0,3.352Zm-3.352,6.7H24.788a1.676,1.676,0,0,0,0-3.352H11.38a1.676,1.676,0,1,0,0,3.352Zm0,6.7H24.788a1.676,1.676,0,1,0,0-3.352H11.38a1.676,1.676,0,1,0,0,3.352ZM31.492,2H4.676A1.676,1.676,0,0,0,3,3.676V33.844a1.676,1.676,0,0,0,2.682,1.341l3.469-2.6,3.453,2.6a1.676,1.676,0,0,0,2.011,0l3.469-2.6,3.469,2.6a1.676,1.676,0,0,0,2.011,0l3.453-2.6,3.469,2.6a1.68,1.68,0,0,0,2.682-1.341V3.676A1.676,1.676,0,0,0,31.492,2ZM29.816,30.492l-1.793-1.341a1.676,1.676,0,0,0-2.011,0l-3.453,2.6-3.469-2.6a1.676,1.676,0,0,0-2.011,0l-3.469,2.6-3.453-2.6a1.676,1.676,0,0,0-2.011,0L6.352,30.492V5.352H29.816Z" transform="translate(-3 -2)" fill="#b9a005"/>
</svg>
