<svg xmlns="http://www.w3.org/2000/svg" width="28" height="32" viewBox="0 0 28 32">
  <g id="data" transform="translate(-2)">
    <path id="Path_848" data-name="Path 848" d="M16,0C9.256,0,2,2.033,2,6.5v19C2,29.965,9.256,32,16,32s14-2.035,14-6.5V6.5C30,2.033,22.742,0,16,0ZM28,25.5c0,2.484-5.373,4.5-12,4.5S4,27.984,4,25.5V21.764C6.066,23.893,11.05,25,16,25s9.934-1.107,12-3.236Zm0-6h0c0,.01,0,.021,0,.031C28,22,22.627,24,16,24S4,22,4,19.531c0-.01,0-.021,0-.031H4V15.764C6.066,17.893,11.05,19,16,19s9.934-1.107,12-3.236Zm0-6h0c0,.01,0,.021,0,.031C28,16,22.627,18,16,18S4,16,4,13.531c0-.01,0-.021,0-.031H4V10.064C6.621,12.061,11.425,13,16,13s9.379-.939,12-2.936ZM16,11C9.372,11,4,8.984,4,6.5S9.372,2,16,2,28,4.014,28,6.5,22.627,11,16,11Z" fill="#fff"/>
    <circle id="Ellipse_342" data-name="Ellipse 342" cx="1" cy="1" r="1" transform="translate(24 25)" fill="#fff"/>
    <circle id="Ellipse_343" data-name="Ellipse 343" cx="1" cy="1" r="1" transform="translate(24 19)" fill="#fff"/>
    <circle id="Ellipse_344" data-name="Ellipse 344" cx="1" cy="1" r="1" transform="translate(24 13)" fill="#fff"/>
  </g>
</svg>
