<svg xmlns="http://www.w3.org/2000/svg" width="21.443" height="21.444" viewBox="0 0 21.443 21.444">
  <g id="Group_814" data-name="Group 814" transform="translate(-4.501 -4.5)">
    <path id="Path_584" data-name="Path 584" d="M22.443,22.482a26.022,26.022,0,0,0-2.909-.558,2.956,2.956,0,0,1-1.346-.62,10.212,10.212,0,0,1-.095-2.636.579.579,0,0,1,.061-.212,8.242,8.242,0,0,0,.575-1.117,12.675,12.675,0,0,0,.424-1.86.435.435,0,0,1,.223-.313,1.016,1.016,0,0,0,.436-.748,7.912,7.912,0,0,0,.413-1.871.79.79,0,0,0-.179-.531.421.421,0,0,1-.112-.413,11.775,11.775,0,0,0,.29-2.546c.05-2.3-1.748-4.557-5-4.557-3.3,0-5.054,2.262-5,4.557a12.282,12.282,0,0,0,.285,2.546.445.445,0,0,1-.112.413.762.762,0,0,0-.179.531,7.912,7.912,0,0,0,.413,1.871,1.029,1.029,0,0,0,.436.748.445.445,0,0,1,.223.313,12.675,12.675,0,0,0,.424,1.86,8.559,8.559,0,0,0,.575,1.117.393.393,0,0,1,.061.212,10.2,10.2,0,0,1-.095,2.636,2.956,2.956,0,0,1-1.346.62A26.022,26.022,0,0,0,8,22.482c-.793.279-3.088,1.145-3.49,2.921a.446.446,0,0,0,.441.542H25.5a.445.445,0,0,0,.436-.542C25.531,23.627,23.236,22.761,22.443,22.482Z" fill="#5ea55a"/>
    <path id="Path_585" data-name="Path 585" d="M29.525,20.094H28.017V18.586A.586.586,0,0,0,27.431,18h0a.586.586,0,0,0-.586.586v1.508H25.336a.586.586,0,0,0-.586.586h0a.586.586,0,0,0,.586.586h1.508v1.508a.586.586,0,0,0,.586.586h0a.586.586,0,0,0,.586-.586V21.267h1.508a.586.586,0,0,0,.586-.586h0A.586.586,0,0,0,29.525,20.094Z" transform="translate(-4.167 -2.778)" fill="#5ea55a"/>
  </g>
</svg>
