<svg xmlns="http://www.w3.org/2000/svg" width="78.121" height="76.232" viewBox="0 0 78.121 76.232">
  <g id="Group_414" data-name="Group 414" transform="translate(25.257 -112.362)">
    <g id="Group_413" data-name="Group 413" transform="translate(-18.723 113.646)">
      <rect id="Rectangle_4044" data-name="Rectangle 4044" width="1.472" height="27.342" rx="0.736" transform="matrix(0.947, -0.321, 0.321, 0.947, 35.235, 47.785)" fill="#45a841" stroke="#fff" stroke-width="2" stroke-dasharray="1" opacity="0.4"/>
      <rect id="Rectangle_4036" data-name="Rectangle 4036" width="1.472" height="17.517" rx="0.736" transform="matrix(0.778, -0.628, 0.628, 0.778, 38.601, 45.011)" fill="#45a841" stroke="#fff" stroke-width="2" stroke-dasharray="1" opacity="0.4"/>
      <rect id="Rectangle_4037" data-name="Rectangle 4037" width="1.472" height="13.669" rx="0.736" transform="translate(40.765 41.664) rotate(-59.038)" fill="#45a841" stroke="#fff" stroke-width="2" stroke-dasharray="1" opacity="0.4"/>
      <rect id="Rectangle_4038" data-name="Rectangle 4038" width="1.472" height="28.753" rx="0.736" transform="translate(41.898 38.124) rotate(-79.198)" fill="#45a841" stroke="#fff" stroke-width="2" stroke-dasharray="1" opacity="0.4"/>
      <rect id="Rectangle_4039" data-name="Rectangle 4039" width="22.559" height="1.472" rx="0.736" transform="translate(42.23 33.005) rotate(-9.355)" fill="#45a841" stroke="#fff" stroke-width="2" stroke-dasharray="1" opacity="0.4"/>
      <rect id="Rectangle_4040" data-name="Rectangle 4040" width="24.476" height="1.472" rx="0.736" transform="translate(41.08 29.399) rotate(-29.513)" fill="#45a841" stroke="#fff" stroke-width="2" stroke-dasharray="1" opacity="0.4"/>
      <rect id="Rectangle_4041" data-name="Rectangle 4041" width="17.161" height="1.472" rx="0.736" transform="translate(39.128 25.781) rotate(-49.679)" fill="#45a841" stroke="#fff" stroke-width="2" stroke-dasharray="1" opacity="0.4"/>
      <rect id="Rectangle_4032" data-name="Rectangle 4032" width="24.198" height="1.472" rx="0.736" transform="translate(35.784 22.716) rotate(-69.843)" fill="#45a841" stroke="#fff" stroke-width="2" stroke-dasharray="1" opacity="0.4"/>
      <g id="Group_411" data-name="Group 411" transform="translate(31.143 6.209)" opacity="0.4">
        <rect id="Rectangle_1723" data-name="Rectangle 1723" width="15.341" height="1.472" rx="0.736" transform="translate(0 15.341) rotate(-89.919)" fill="#45a841" stroke="#fff" stroke-width="2" stroke-dasharray="1"/>
      </g>
      <rect id="Rectangle_4033" data-name="Rectangle 4033" width="1.472" height="19.539" rx="0.736" transform="matrix(0.955, -0.297, 0.297, 0.955, 21.407, 4.151)" fill="#45a841" stroke="#fff" stroke-width="2" stroke-dasharray="1" opacity="0.4"/>
      <rect id="Rectangle_4030" data-name="Rectangle 4030" width="1.472" height="24.344" rx="0.736" transform="matrix(0.794, -0.608, 0.608, 0.794, 9.075, 6.81)" fill="#45a841" stroke="#fff" stroke-width="2" stroke-dasharray="1" opacity="0.4"/>
      <rect id="Rectangle_4031" data-name="Rectangle 4031" width="1.472" height="14.723" rx="0.736" transform="translate(9.685 22.172) rotate(-57.595)" fill="#45a841" stroke="#fff" stroke-width="2" stroke-dasharray="1" opacity="0.4"/>
      <rect id="Rectangle_4034" data-name="Rectangle 4034" width="1.472" height="22.019" rx="0.736" transform="translate(0 29.221) rotate(-77.755)" fill="#45a841" stroke="#fff" stroke-width="2" stroke-dasharray="1" opacity="0.4"/>
      <rect id="Rectangle_4042" data-name="Rectangle 4042" width="15.312" height="1.472" rx="0.736" transform="matrix(0.882, -0.471, 0.471, 0.882, 8.544, 46.984)" fill="#45a841" stroke="#fff" stroke-width="2" stroke-dasharray="1" opacity="0.4"/>
      <rect id="Rectangle_4043" data-name="Rectangle 4043" width="21.72" height="1.472" rx="0.736" transform="matrix(0.666, -0.746, 0.746, 0.666, 9.114, 59.736)" fill="#45a841" stroke="#fff" stroke-width="2" stroke-dasharray="1" opacity="0.4"/>
      <rect id="Rectangle_4045" data-name="Rectangle 4045" width="13.043" height="1.472" rx="0.736" transform="translate(21.691 59.006) rotate(-68.39)" fill="#45a841" stroke="#fff" stroke-width="2" stroke-dasharray="1" opacity="0.4"/>
      <g id="Group_412" data-name="Group 412" transform="translate(30.586 48.576)" opacity="0.4">
        <rect id="Rectangle_4027" data-name="Rectangle 4027" width="6.841" height="1.472" rx="0.736" transform="translate(0 6.839) rotate(-88.558)" fill="#45a841" stroke="#fff" stroke-width="2" stroke-dasharray="1"/>
      </g>
      <g id="Group_410" data-name="Group 410" transform="translate(25.765 30.951)">
        <g id="Group_408" data-name="Group 408">
          <path id="Path_349" data-name="Path 349" d="M349.68-139.09a.753.753,0,0,1,.779.759.753.753,0,0,1-.779.759.751.751,0,0,1-.769-.759A.751.751,0,0,1,349.68-139.09Zm-.653,1.97h1.326v5.026h-1.326Z" transform="translate(-348.911 139.09)" fill="#45a841"/>
          <path id="Path_350" data-name="Path 350" d="M373.23-118.688c-.99,0-1.355.615-1.355,1.615v2.191h-1.326v-5.026h1.3v.73a1.462,1.462,0,0,1,1.384-.855Z" transform="translate(-368.454 121.878)" fill="#45a841"/>
          <path id="Path_351" data-name="Path 351" d="M409.389-114.882h-1.326v-3.008c0-.6-.3-.951-.788-.951s-.817.356-.817.961v3h-1.326v-3.056c0-.567-.288-.9-.779-.9a.839.839,0,0,0-.817.951v3.008H402.21v-5.026h1.3v.586a1.439,1.439,0,0,1,1.307-.711,1.494,1.494,0,0,1,1.374.75,1.7,1.7,0,0,1,1.49-.75,1.631,1.631,0,0,1,1.711,1.836Z" transform="translate(-397.049 121.878)" fill="#45a841"/>
        </g>
        <g id="Group_409" data-name="Group 409" transform="translate(0.092 7.541)">
          <path id="Path_352" data-name="Path 352" d="M349.974-60.6a.066.066,0,0,1-.048.019.063.063,0,0,1-.047-.019.063.063,0,0,1-.019-.046v-.505a.062.062,0,0,1,.02-.046.066.066,0,0,1,.048-.019.063.063,0,0,1,.046.019.063.063,0,0,1,.019.046v.505A.062.062,0,0,1,349.974-60.6Z" transform="translate(-349.861 61.212)" fill="#45a841"/>
          <path id="Path_353" data-name="Path 353" d="M352.89-59.037a.058.058,0,0,1-.043.017.057.057,0,0,1-.042-.017.057.057,0,0,1-.017-.042v-.22a.082.082,0,0,0-.022-.066.094.094,0,0,0-.061-.018.112.112,0,0,0-.033,0,.135.135,0,0,0-.029.012.133.133,0,0,0-.023.017.128.128,0,0,0-.018.02v.251a.057.057,0,0,1-.017.042.058.058,0,0,1-.043.017.057.057,0,0,1-.042-.017.057.057,0,0,1-.017-.042v-.347a.055.055,0,0,1,.017-.041.06.06,0,0,1,.043-.017.056.056,0,0,1,.041.017.056.056,0,0,1,.017.041v.007a.205.205,0,0,1,.027-.026.173.173,0,0,1,.036-.022.224.224,0,0,1,.044-.016.21.21,0,0,1,.052-.006.145.145,0,0,1,.111.039.149.149,0,0,1,.036.105v.266A.057.057,0,0,1,352.89-59.037Z" transform="translate(-352.229 59.656)" fill="#45a841"/>
          <path id="Path_354" data-name="Path 354" d="M357.8-60.17a.054.054,0,0,1,0,.021.043.043,0,0,1-.015.017.077.077,0,0,1-.029.012.217.217,0,0,1-.048,0,.131.131,0,0,1-.095-.031.123.123,0,0,1-.033-.092v-.236h-.029a.049.049,0,0,1-.037-.015.053.053,0,0,1-.015-.038.049.049,0,0,1,.015-.036.05.05,0,0,1,.037-.015h.029v-.07a.057.057,0,0,1,.017-.042.058.058,0,0,1,.043-.017.057.057,0,0,1,.041.017.057.057,0,0,1,.017.042v.07h.047a.048.048,0,0,1,.036.015.052.052,0,0,1,.015.037.05.05,0,0,1-.015.037.049.049,0,0,1-.036.015H357.7v.2a.047.047,0,0,0,.014.038.043.043,0,0,0,.028.011h.01a.05.05,0,0,1,.039.015A.052.052,0,0,1,357.8-60.17Z" transform="translate(-356.757 60.758)" fill="#45a841"/>
          <path id="Path_355" data-name="Path 355" d="M361.516-59.268a.053.053,0,0,1-.016.038.053.053,0,0,1-.039.016h-.279a.125.125,0,0,0,.013.041.109.109,0,0,0,.026.033.128.128,0,0,0,.039.023.153.153,0,0,0,.052.008.192.192,0,0,0,.043-.006.191.191,0,0,0,.045-.017.052.052,0,0,1,.023-.006.054.054,0,0,1,.035.013.042.042,0,0,1,.016.035.039.039,0,0,1-.021.036.251.251,0,0,1-.074.03.355.355,0,0,1-.081.009.269.269,0,0,1-.1-.017.225.225,0,0,1-.077-.048.219.219,0,0,1-.051-.075.256.256,0,0,1-.018-.1.248.248,0,0,1,.017-.092.23.23,0,0,1,.048-.075.23.23,0,0,1,.074-.051.234.234,0,0,1,.094-.019.232.232,0,0,1,.072.011.217.217,0,0,1,.06.03.208.208,0,0,1,.047.048.262.262,0,0,1,.032.063l.009.034A.147.147,0,0,1,361.516-59.268Zm-.113-.026a.118.118,0,0,0-.008-.034.1.1,0,0,0-.02-.032.106.106,0,0,0-.034-.024.118.118,0,0,0-.05-.01.115.115,0,0,0-.048.009.1.1,0,0,0-.033.024.117.117,0,0,0-.021.032.126.126,0,0,0-.009.035Z" transform="translate(-359.973 59.656)" fill="#45a841"/>
          <path id="Path_356" data-name="Path 356" d="M366.868-59.056a.225.225,0,0,1-.022.106.18.18,0,0,1-.058.066.223.223,0,0,1-.078.033.4.4,0,0,1-.085.009l-.047,0a.381.381,0,0,1-.052-.009.22.22,0,0,1-.046-.017.079.079,0,0,1-.031-.027.048.048,0,0,1-.007-.026.046.046,0,0,1,.015-.035.049.049,0,0,1,.035-.014.054.054,0,0,1,.025.006.175.175,0,0,0,.051.022.238.238,0,0,0,.057.007.193.193,0,0,0,.044-.005.112.112,0,0,0,.04-.019.1.1,0,0,0,.029-.035.123.123,0,0,0,.011-.056V-59.1a.2.2,0,0,1-.063.052.162.162,0,0,1-.077.019.206.206,0,0,1-.079-.015.174.174,0,0,1-.063-.044.207.207,0,0,1-.042-.072.294.294,0,0,1-.015-.1.3.3,0,0,1,.015-.1.208.208,0,0,1,.042-.073.174.174,0,0,1,.063-.045.211.211,0,0,1,.08-.015.174.174,0,0,1,.077.017.182.182,0,0,1,.063.052v0a.057.057,0,0,1,.017-.042.058.058,0,0,1,.043-.017.056.056,0,0,1,.041.017.057.057,0,0,1,.017.042Zm-.119-.129v-.146a.1.1,0,0,0-.019-.021.144.144,0,0,0-.025-.016.133.133,0,0,0-.029-.011.123.123,0,0,0-.03,0,.123.123,0,0,0-.047.008.1.1,0,0,0-.036.025.117.117,0,0,0-.024.039.151.151,0,0,0-.008.052.151.151,0,0,0,.008.052.118.118,0,0,0,.024.039.1.1,0,0,0,.036.025.123.123,0,0,0,.047.009.129.129,0,0,0,.03,0,.133.133,0,0,0,.029-.011.143.143,0,0,0,.025-.016A.1.1,0,0,0,366.749-59.185Z" transform="translate(-364.807 59.656)" fill="#45a841"/>
          <path id="Path_357" data-name="Path 357" d="M372.639-59.38a.055.055,0,0,1-.016.042.076.076,0,0,1-.041.019.186.186,0,0,0-.052.015.1.1,0,0,0-.041.033v.245a.057.057,0,0,1-.017.042.055.055,0,0,1-.041.017h0a.057.057,0,0,1-.042-.017.057.057,0,0,1-.017-.042v-.347a.055.055,0,0,1,.017-.041.06.06,0,0,1,.044-.017.056.056,0,0,1,.041.017.056.056,0,0,1,.017.041v.009l.018-.023a.136.136,0,0,1,.022-.021.121.121,0,0,1,.026-.015.076.076,0,0,1,.031-.006.051.051,0,0,1,.039.014A.049.049,0,0,1,372.639-59.38Z" transform="translate(-370.191 59.603)" fill="#45a841"/>
          <path id="Path_358" data-name="Path 358" d="M375.973-59.079a.057.057,0,0,1-.017.042.055.055,0,0,1-.041.017h-.009a.049.049,0,0,1-.036-.015.051.051,0,0,1-.015-.037.159.159,0,0,1-.061.043.213.213,0,0,1-.082.015.175.175,0,0,1-.055-.009.163.163,0,0,1-.051-.028.142.142,0,0,1-.037-.046.142.142,0,0,1-.015-.067.144.144,0,0,1,.015-.068.133.133,0,0,1,.037-.046.148.148,0,0,1,.051-.025.2.2,0,0,1,.055-.008.237.237,0,0,1,.083.014.14.14,0,0,1,.06.042v-.061a.067.067,0,0,0-.027-.056.116.116,0,0,0-.072-.021.214.214,0,0,0-.052.006.156.156,0,0,0-.049.023.043.043,0,0,1-.022.006.047.047,0,0,1-.03-.012.042.042,0,0,1-.014-.034.046.046,0,0,1,.006-.023.085.085,0,0,1,.033-.029.242.242,0,0,1,.049-.02.421.421,0,0,1,.053-.011.351.351,0,0,1,.046,0,.32.32,0,0,1,.074.008.175.175,0,0,1,.063.029.143.143,0,0,1,.044.053.18.18,0,0,1,.016.082Zm-.119-.055v-.056a.091.091,0,0,0-.041-.03.152.152,0,0,0-.055-.01.1.1,0,0,0-.061.018.059.059,0,0,0-.025.051.057.057,0,0,0,.025.049.1.1,0,0,0,.061.017.156.156,0,0,0,.055-.01A.092.092,0,0,0,375.854-59.134Z" transform="translate(-373.065 59.656)" fill="#45a841"/>
          <path id="Path_359" data-name="Path 359" d="M380.821-60.17a.053.053,0,0,1,0,.021.042.042,0,0,1-.015.017.077.077,0,0,1-.029.012.217.217,0,0,1-.048,0,.132.132,0,0,1-.1-.031.123.123,0,0,1-.032-.092v-.236h-.029a.049.049,0,0,1-.036-.015.052.052,0,0,1-.015-.038.049.049,0,0,1,.015-.036.05.05,0,0,1,.036-.015h.029v-.07a.057.057,0,0,1,.017-.042.058.058,0,0,1,.043-.017.056.056,0,0,1,.041.017.057.057,0,0,1,.017.042v.07h.047a.048.048,0,0,1,.036.015.052.052,0,0,1,.015.037.05.05,0,0,1-.015.037.049.049,0,0,1-.036.015h-.047v.2a.047.047,0,0,0,.013.038.043.043,0,0,0,.028.011h.01a.049.049,0,0,1,.039.015A.052.052,0,0,1,380.821-60.17Z" transform="translate(-377.549 60.758)" fill="#45a841"/>
          <path id="Path_360" data-name="Path 360" d="M384.538-59.268a.053.053,0,0,1-.016.038.053.053,0,0,1-.039.016H384.2a.121.121,0,0,0,.013.041.108.108,0,0,0,.026.033.13.13,0,0,0,.039.023.153.153,0,0,0,.052.008.192.192,0,0,0,.043-.006.194.194,0,0,0,.046-.017.052.052,0,0,1,.023-.006.053.053,0,0,1,.035.013.042.042,0,0,1,.016.035.039.039,0,0,1-.021.036.252.252,0,0,1-.074.03.356.356,0,0,1-.081.009.268.268,0,0,1-.1-.017.224.224,0,0,1-.077-.048.217.217,0,0,1-.051-.075.256.256,0,0,1-.018-.1.248.248,0,0,1,.017-.092.232.232,0,0,1,.048-.075.23.23,0,0,1,.074-.051.234.234,0,0,1,.095-.019.233.233,0,0,1,.072.011.219.219,0,0,1,.06.03.207.207,0,0,1,.047.048.256.256,0,0,1,.032.063c0,.011.006.022.009.034A.152.152,0,0,1,384.538-59.268Zm-.113-.026a.116.116,0,0,0-.008-.034.1.1,0,0,0-.02-.032.105.105,0,0,0-.034-.024.118.118,0,0,0-.05-.01.114.114,0,0,0-.048.009.1.1,0,0,0-.033.024.119.119,0,0,0-.021.032.126.126,0,0,0-.009.035Z" transform="translate(-380.766 59.656)" fill="#45a841"/>
          <path id="Path_361" data-name="Path 361" d="M389.89-60.635a.057.057,0,0,1-.017.042.059.059,0,0,1-.043.017.056.056,0,0,1-.041-.017.057.057,0,0,1-.017-.042v0a.191.191,0,0,1-.063.052.17.17,0,0,1-.077.018.2.2,0,0,1-.08-.016.181.181,0,0,1-.063-.046.216.216,0,0,1-.042-.075.308.308,0,0,1-.015-.1.3.3,0,0,1,.015-.1.223.223,0,0,1,.042-.075.181.181,0,0,1,.064-.047.2.2,0,0,1,.08-.016.176.176,0,0,1,.077.017.181.181,0,0,1,.063.052v-.177a.057.057,0,0,1,.017-.042.058.058,0,0,1,.043-.017.057.057,0,0,1,.041.017.058.058,0,0,1,.017.042Zm-.119-.093v-.16a.112.112,0,0,0-.044-.037.133.133,0,0,0-.059-.014.114.114,0,0,0-.046.009.1.1,0,0,0-.036.027.127.127,0,0,0-.024.042.162.162,0,0,0-.008.053.162.162,0,0,0,.008.053.122.122,0,0,0,.024.042.1.1,0,0,0,.036.027.114.114,0,0,0,.046.009.132.132,0,0,0,.059-.015A.111.111,0,0,0,389.771-60.728Z" transform="translate(-385.599 61.212)" fill="#45a841"/>
          <path id="Path_362" data-name="Path 362" d="M398.408-60.953a.213.213,0,0,1-.012.073.181.181,0,0,1-.031.055.176.176,0,0,1-.044.037.17.17,0,0,1-.05.02l.086.146a.066.066,0,0,1,.009.032.067.067,0,0,1-.018.045.06.06,0,0,1-.048.021.063.063,0,0,1-.033-.009.07.07,0,0,1-.024-.025l-.106-.194h-.1v.162a.062.062,0,0,1-.02.046.066.066,0,0,1-.048.019.063.063,0,0,1-.047-.019.063.063,0,0,1-.019-.046v-.49a.072.072,0,0,1,.022-.053.072.072,0,0,1,.053-.022h.217a.242.242,0,0,1,.087.015.188.188,0,0,1,.066.042.185.185,0,0,1,.042.064A.217.217,0,0,1,398.408-60.953Zm-.229-.084h-.14v.169h.14a.1.1,0,0,0,.067-.022.077.077,0,0,0,.027-.062.077.077,0,0,0-.027-.062A.1.1,0,0,0,398.18-61.037Z" transform="translate(-393.255 61.16)" fill="#45a841"/>
          <path id="Path_363" data-name="Path 363" d="M403.969-59.268a.053.053,0,0,1-.016.038.053.053,0,0,1-.039.016h-.279a.122.122,0,0,0,.013.041.109.109,0,0,0,.026.033.129.129,0,0,0,.039.023.153.153,0,0,0,.052.008.192.192,0,0,0,.043-.006.191.191,0,0,0,.045-.017.053.053,0,0,1,.023-.006.053.053,0,0,1,.035.013.043.043,0,0,1,.016.035.039.039,0,0,1-.021.036.25.25,0,0,1-.074.03.355.355,0,0,1-.081.009.269.269,0,0,1-.1-.017.226.226,0,0,1-.077-.048.219.219,0,0,1-.051-.075.256.256,0,0,1-.018-.1.248.248,0,0,1,.017-.092.229.229,0,0,1,.048-.075.23.23,0,0,1,.074-.051.234.234,0,0,1,.095-.019.233.233,0,0,1,.072.011.218.218,0,0,1,.06.03.208.208,0,0,1,.047.048.257.257,0,0,1,.032.063c0,.011.006.022.009.034A.15.15,0,0,1,403.969-59.268Zm-.113-.026a.121.121,0,0,0-.008-.034.1.1,0,0,0-.02-.032.106.106,0,0,0-.034-.024.118.118,0,0,0-.05-.01.114.114,0,0,0-.048.009.1.1,0,0,0-.033.024.116.116,0,0,0-.021.032.127.127,0,0,0-.009.035Z" transform="translate(-398.315 59.656)" fill="#45a841"/>
          <path id="Path_364" data-name="Path 364" d="M409.2-59.363a.051.051,0,0,1,0,.021l-.132.327a.09.09,0,0,1-.033.041.085.085,0,0,1-.05.015h0a.087.087,0,0,1-.05-.015.088.088,0,0,1-.033-.041l-.132-.327a.057.057,0,0,1,0-.022.058.058,0,0,1,.017-.04.058.058,0,0,1,.044-.018.056.056,0,0,1,.032.01.056.056,0,0,1,.021.027l.106.284.106-.283a.054.054,0,0,1,.021-.028.059.059,0,0,1,.033-.01.056.056,0,0,1,.044.018A.059.059,0,0,1,409.2-59.363Z" transform="translate(-403.052 59.595)" fill="#45a841"/>
          <path id="Path_365" data-name="Path 365" d="M414.285-59.268a.053.053,0,0,1-.016.038.053.053,0,0,1-.039.016h-.279a.121.121,0,0,0,.013.041.108.108,0,0,0,.026.033.131.131,0,0,0,.039.023.152.152,0,0,0,.052.008.191.191,0,0,0,.043-.006.193.193,0,0,0,.046-.017.052.052,0,0,1,.023-.006.053.053,0,0,1,.035.013.042.042,0,0,1,.016.035.039.039,0,0,1-.021.036.252.252,0,0,1-.074.03.357.357,0,0,1-.081.009.269.269,0,0,1-.1-.017.224.224,0,0,1-.077-.048.218.218,0,0,1-.051-.075.256.256,0,0,1-.018-.1.247.247,0,0,1,.017-.092.229.229,0,0,1,.048-.075.228.228,0,0,1,.074-.051.235.235,0,0,1,.095-.019.233.233,0,0,1,.072.011.218.218,0,0,1,.06.03.2.2,0,0,1,.047.048.256.256,0,0,1,.032.063c0,.011.006.022.009.034A.15.15,0,0,1,414.285-59.268Zm-.113-.026a.116.116,0,0,0-.008-.034.1.1,0,0,0-.02-.032.106.106,0,0,0-.034-.024.117.117,0,0,0-.05-.01.114.114,0,0,0-.048.009.105.105,0,0,0-.033.024.119.119,0,0,0-.021.032.127.127,0,0,0-.009.035Z" transform="translate(-407.632 59.656)" fill="#45a841"/>
          <path id="Path_366" data-name="Path 366" d="M419.884-59.037a.058.058,0,0,1-.043.017.057.057,0,0,1-.042-.017.057.057,0,0,1-.017-.042v-.22a.082.082,0,0,0-.022-.066.094.094,0,0,0-.061-.018.112.112,0,0,0-.033,0,.134.134,0,0,0-.029.012.135.135,0,0,0-.023.017.131.131,0,0,0-.018.02v.251a.057.057,0,0,1-.017.042.058.058,0,0,1-.042.017.057.057,0,0,1-.042-.017.057.057,0,0,1-.017-.042v-.347a.055.055,0,0,1,.017-.041.06.06,0,0,1,.043-.017.056.056,0,0,1,.041.017.056.056,0,0,1,.017.041v.007a.211.211,0,0,1,.027-.026.179.179,0,0,1,.036-.022.224.224,0,0,1,.044-.016.211.211,0,0,1,.052-.006.145.145,0,0,1,.111.039.149.149,0,0,1,.036.105v.266A.057.057,0,0,1,419.884-59.037Z" transform="translate(-412.736 59.656)" fill="#45a841"/>
          <path id="Path_367" data-name="Path 367" d="M425.487-58.985a.058.058,0,0,1-.043.017.057.057,0,0,1-.042-.017.057.057,0,0,1-.017-.042v0a.224.224,0,0,1-.063.047.2.2,0,0,1-.1.021.145.145,0,0,1-.11-.038.147.147,0,0,1-.036-.1v-.269a.055.055,0,0,1,.017-.041.06.06,0,0,1,.044-.017.056.056,0,0,1,.041.017.056.056,0,0,1,.017.041v.222a.11.11,0,0,0,.006.039.064.064,0,0,0,.017.026.064.064,0,0,0,.026.014.134.134,0,0,0,.034,0,.114.114,0,0,0,.061-.016.162.162,0,0,0,.042-.036v-.254a.056.056,0,0,1,.017-.041.06.06,0,0,1,.044-.017.056.056,0,0,1,.041.017.056.056,0,0,1,.017.041v.347A.057.057,0,0,1,425.487-58.985Z" transform="translate(-417.797 59.603)" fill="#45a841"/>
          <path id="Path_368" data-name="Path 368" d="M430.841-59.268a.053.053,0,0,1-.016.038.053.053,0,0,1-.039.016h-.279a.123.123,0,0,0,.013.041.11.11,0,0,0,.026.033.13.13,0,0,0,.039.023.153.153,0,0,0,.052.008.192.192,0,0,0,.043-.006.191.191,0,0,0,.045-.017.053.053,0,0,1,.024-.006.053.053,0,0,1,.035.013.043.043,0,0,1,.016.035.039.039,0,0,1-.021.036.251.251,0,0,1-.074.03.355.355,0,0,1-.081.009.269.269,0,0,1-.1-.017.226.226,0,0,1-.077-.048.219.219,0,0,1-.051-.075.256.256,0,0,1-.018-.1.247.247,0,0,1,.017-.092.229.229,0,0,1,.048-.075.23.23,0,0,1,.074-.051.234.234,0,0,1,.094-.019.233.233,0,0,1,.072.011.22.22,0,0,1,.06.03.209.209,0,0,1,.047.048.258.258,0,0,1,.032.063c0,.011.006.022.009.034A.15.15,0,0,1,430.841-59.268Zm-.113-.026a.118.118,0,0,0-.008-.034.1.1,0,0,0-.02-.032.106.106,0,0,0-.034-.024.118.118,0,0,0-.05-.01.114.114,0,0,0-.048.009.1.1,0,0,0-.033.024.115.115,0,0,0-.021.032.125.125,0,0,0-.009.035Z" transform="translate(-422.585 59.656)" fill="#45a841"/>
          <path id="Path_369" data-name="Path 369" d="M439.2-60.562a.066.066,0,0,1-.048.02.065.065,0,0,1-.047-.02.064.064,0,0,1-.02-.047v-.377l-.168.419a.042.042,0,0,1-.014.017.038.038,0,0,1-.023.007.034.034,0,0,1-.021-.007.042.042,0,0,1-.014-.017l-.168-.419v.378a.062.062,0,0,1-.02.046.066.066,0,0,1-.048.019.063.063,0,0,1-.046-.019.063.063,0,0,1-.019-.046v-.49a.072.072,0,0,1,.022-.053.072.072,0,0,1,.053-.022.2.2,0,0,1,.082.008.087.087,0,0,1,.053.053l.127.317.127-.317a.1.1,0,0,1,.036-.044.1.1,0,0,1,.055-.017.152.152,0,0,1,.044,0,.12.12,0,0,1,.039.012.072.072,0,0,1,.028.025.07.07,0,0,1,.01.039v.489A.064.064,0,0,1,439.2-60.562Z" transform="translate(-429.954 61.179)" fill="#45a841"/>
          <path id="Path_370" data-name="Path 370" d="M446.9-59.079a.058.058,0,0,1-.017.042.055.055,0,0,1-.041.017h-.009a.048.048,0,0,1-.036-.015.051.051,0,0,1-.015-.037.16.16,0,0,1-.061.043.213.213,0,0,1-.083.015.175.175,0,0,1-.055-.009.163.163,0,0,1-.051-.028.144.144,0,0,1-.037-.046.144.144,0,0,1-.015-.067.146.146,0,0,1,.015-.068.134.134,0,0,1,.037-.046.148.148,0,0,1,.051-.025.2.2,0,0,1,.055-.008.236.236,0,0,1,.083.014.14.14,0,0,1,.06.042v-.061a.067.067,0,0,0-.027-.056.115.115,0,0,0-.072-.021.213.213,0,0,0-.052.006.154.154,0,0,0-.049.023.042.042,0,0,1-.021.006.047.047,0,0,1-.031-.012.041.041,0,0,1-.014-.034.046.046,0,0,1,.006-.023.084.084,0,0,1,.033-.029.238.238,0,0,1,.049-.02.422.422,0,0,1,.053-.011.352.352,0,0,1,.046,0,.321.321,0,0,1,.074.008.175.175,0,0,1,.063.029.144.144,0,0,1,.044.053.181.181,0,0,1,.016.082Zm-.119-.055v-.056a.091.091,0,0,0-.041-.03.152.152,0,0,0-.055-.01.1.1,0,0,0-.061.018.059.059,0,0,0-.025.051.057.057,0,0,0,.025.049.1.1,0,0,0,.061.017.156.156,0,0,0,.055-.01A.092.092,0,0,0,446.786-59.134Z" transform="translate(-437.129 59.656)" fill="#45a841"/>
          <path id="Path_371" data-name="Path 371" d="M452.447-59.037a.058.058,0,0,1-.043.017.057.057,0,0,1-.042-.017.057.057,0,0,1-.017-.042v-.22a.082.082,0,0,0-.022-.066.094.094,0,0,0-.061-.018.111.111,0,0,0-.033,0,.133.133,0,0,0-.029.012.128.128,0,0,0-.023.017.129.129,0,0,0-.018.02v.251a.056.056,0,0,1-.017.042.058.058,0,0,1-.042.017.057.057,0,0,1-.042-.017.057.057,0,0,1-.017-.042v-.347a.055.055,0,0,1,.017-.041.06.06,0,0,1,.044-.017.056.056,0,0,1,.041.017.056.056,0,0,1,.017.041v.007a.2.2,0,0,1,.027-.026.172.172,0,0,1,.036-.022.218.218,0,0,1,.044-.016.21.21,0,0,1,.052-.006.145.145,0,0,1,.111.039.149.149,0,0,1,.036.105v.266A.057.057,0,0,1,452.447-59.037Z" transform="translate(-442.146 59.656)" fill="#45a841"/>
          <path id="Path_372" data-name="Path 372" d="M457.763-59.079a.058.058,0,0,1-.017.042.056.056,0,0,1-.041.017H457.7a.049.049,0,0,1-.036-.015.051.051,0,0,1-.015-.037.159.159,0,0,1-.061.043.214.214,0,0,1-.083.015.176.176,0,0,1-.055-.009.163.163,0,0,1-.05-.028.143.143,0,0,1-.037-.046.143.143,0,0,1-.015-.067.145.145,0,0,1,.015-.068.134.134,0,0,1,.037-.046.148.148,0,0,1,.05-.025.2.2,0,0,1,.055-.008.237.237,0,0,1,.083.014.14.14,0,0,1,.06.042v-.061a.067.067,0,0,0-.027-.056.116.116,0,0,0-.072-.021.214.214,0,0,0-.052.006.155.155,0,0,0-.049.023.043.043,0,0,1-.022.006.047.047,0,0,1-.031-.012.042.042,0,0,1-.014-.034.046.046,0,0,1,.007-.023.085.085,0,0,1,.033-.029.242.242,0,0,1,.049-.02.423.423,0,0,1,.053-.011.352.352,0,0,1,.046,0,.32.32,0,0,1,.074.008.175.175,0,0,1,.063.029.143.143,0,0,1,.044.053.18.18,0,0,1,.016.082Zm-.119-.055v-.056a.09.09,0,0,0-.041-.03.152.152,0,0,0-.055-.01.1.1,0,0,0-.061.018.059.059,0,0,0-.025.051.057.057,0,0,0,.025.049.1.1,0,0,0,.061.017.156.156,0,0,0,.055-.01A.092.092,0,0,0,457.644-59.134Z" transform="translate(-446.936 59.656)" fill="#45a841"/>
          <path id="Path_373" data-name="Path 373" d="M463.056-59.056a.225.225,0,0,1-.022.106.18.18,0,0,1-.058.066.222.222,0,0,1-.078.033.4.4,0,0,1-.085.009l-.047,0a.384.384,0,0,1-.052-.009.216.216,0,0,1-.046-.017.078.078,0,0,1-.031-.027.049.049,0,0,1-.008-.026.047.047,0,0,1,.015-.035.049.049,0,0,1,.035-.014.054.054,0,0,1,.025.006.174.174,0,0,0,.051.022.238.238,0,0,0,.057.007.193.193,0,0,0,.044-.005.112.112,0,0,0,.04-.019.1.1,0,0,0,.029-.035.122.122,0,0,0,.011-.056V-59.1a.2.2,0,0,1-.063.052.162.162,0,0,1-.077.019.207.207,0,0,1-.079-.015.175.175,0,0,1-.063-.044.21.21,0,0,1-.042-.072.294.294,0,0,1-.016-.1.3.3,0,0,1,.015-.1.209.209,0,0,1,.042-.073.176.176,0,0,1,.063-.045.211.211,0,0,1,.08-.015.175.175,0,0,1,.077.017.181.181,0,0,1,.063.052v0a.057.057,0,0,1,.017-.042.058.058,0,0,1,.043-.017.056.056,0,0,1,.041.017.057.057,0,0,1,.017.042Zm-.119-.129v-.146a.1.1,0,0,0-.019-.021.142.142,0,0,0-.025-.016.136.136,0,0,0-.029-.011.124.124,0,0,0-.03,0,.123.123,0,0,0-.047.008.094.094,0,0,0-.036.025.114.114,0,0,0-.024.039.147.147,0,0,0-.009.052.148.148,0,0,0,.009.052.115.115,0,0,0,.024.039.1.1,0,0,0,.036.025.123.123,0,0,0,.047.009.129.129,0,0,0,.03,0,.137.137,0,0,0,.029-.011.141.141,0,0,0,.025-.016A.1.1,0,0,0,462.937-59.185Z" transform="translate(-451.681 59.656)" fill="#45a841"/>
          <path id="Path_374" data-name="Path 374" d="M468.717-59.268a.053.053,0,0,1-.016.038.053.053,0,0,1-.039.016h-.279a.122.122,0,0,0,.013.041.109.109,0,0,0,.026.033.129.129,0,0,0,.039.023.153.153,0,0,0,.052.008.193.193,0,0,0,.043-.006.191.191,0,0,0,.045-.017.053.053,0,0,1,.024-.006.053.053,0,0,1,.035.013.043.043,0,0,1,.016.035.039.039,0,0,1-.021.036.251.251,0,0,1-.074.03.355.355,0,0,1-.081.009.269.269,0,0,1-.1-.017.226.226,0,0,1-.077-.048.219.219,0,0,1-.051-.075.257.257,0,0,1-.018-.1.247.247,0,0,1,.017-.092.229.229,0,0,1,.048-.075.23.23,0,0,1,.074-.051.234.234,0,0,1,.094-.019.233.233,0,0,1,.072.011.218.218,0,0,1,.06.03.208.208,0,0,1,.047.048.258.258,0,0,1,.032.063l.009.034A.148.148,0,0,1,468.717-59.268Zm-.113-.026a.117.117,0,0,0-.008-.034.1.1,0,0,0-.02-.032.105.105,0,0,0-.034-.024.118.118,0,0,0-.05-.01.115.115,0,0,0-.048.009.1.1,0,0,0-.033.024.115.115,0,0,0-.021.032.124.124,0,0,0-.009.035Z" transform="translate(-456.794 59.656)" fill="#45a841"/>
          <path id="Path_375" data-name="Path 375" d="M474.179-59.38a.054.054,0,0,1-.016.042.076.076,0,0,1-.041.019.186.186,0,0,0-.052.015.1.1,0,0,0-.041.033v.245a.057.057,0,0,1-.017.042.055.055,0,0,1-.041.017h0a.057.057,0,0,1-.042-.017.056.056,0,0,1-.017-.042v-.347a.055.055,0,0,1,.017-.041.06.06,0,0,1,.044-.017.056.056,0,0,1,.041.017.056.056,0,0,1,.017.041v.009l.018-.023a.136.136,0,0,1,.022-.021.12.12,0,0,1,.026-.015.077.077,0,0,1,.031-.006.051.051,0,0,1,.039.014A.049.049,0,0,1,474.179-59.38Z" transform="translate(-461.899 59.603)" fill="#45a841"/>
        </g>
      </g>
    </g>
    <rect id="Rectangle_4035" data-name="Rectangle 4035" width="26.603" height="1.46" rx="0.73" transform="translate(-24.129 153.442) rotate(-7.921)" fill="#45a841" stroke="#fff" stroke-width="2" stroke-dasharray="1" opacity="0.4"/>
  </g>
</svg>
