<svg xmlns="http://www.w3.org/2000/svg" width="29.25" height="21.375" viewBox="0 0 29.25 21.375">
  <g id="Icon_ionic-ios-car" data-name="Icon ionic-ios-car" transform="translate(-3.375 -7.313)">
    <g id="Group_981" data-name="Group 981">
      <path id="Path_642" data-name="Path 642" d="M29.25,13.8c-.97-2.166-3.445-6.483-7.031-6.483H13.781c-3.586,0-5.963,4.177-7.031,6.483-1.687,1.617-3.375,3.213-3.375,5.962V25.1a.564.564,0,0,0,.436.548c1.048.239,4.373.717,14.189.717s13.141-.478,14.189-.717a.564.564,0,0,0,.436-.548V19.758C32.625,17.016,31.057,15.321,29.25,13.8ZM13.359,9h9.281C25.488,9,27,13.219,27,13.922H9C9,13.219,10.9,9,13.359,9ZM7.875,23.323a2.25,2.25,0,1,1,2.25-2.25A2.248,2.248,0,0,1,7.875,23.323Zm15.188-2.229a1.128,1.128,0,0,1-1.125,1.125H14.063a1.128,1.128,0,0,1-1.125-1.125h0a1.128,1.128,0,0,1,1.125-1.125h7.875a1.128,1.128,0,0,1,1.125,1.125Zm5.063,2.25a2.25,2.25,0,1,1,2.25-2.25A2.248,2.248,0,0,1,28.125,23.344Z" fill="#b9a005"/>
      <path id="Path_643" data-name="Path 643" d="M11.25,27c-3.368,0-6.75-.352-6.75-.352,0,1.2-.021,2.039.422,2.039H10.9C11.341,28.688,11.25,27.759,11.25,27Z" fill="#b9a005"/>
    </g>
    <path id="Path_644" data-name="Path 644" d="M24.75,27c3.375,0,6.75-.352,6.75-.352,0,1.125.141,2.039-.352,2.039H25.1C24.63,28.688,24.75,27.738,24.75,27Z" fill="#b9a005"/>
  </g>
</svg>
