<svg xmlns="http://www.w3.org/2000/svg" width="28.5" height="32.571" viewBox="0 0 28.5 32.571">
  <path id="Icon_awesome-calculator" data-name="Icon awesome-calculator" d="M25.446,0H3.054A3.131,3.131,0,0,0,0,3.054V29.518a3.131,3.131,0,0,0,3.054,3.054H25.446A3.131,3.131,0,0,0,28.5,29.518V3.054A3.131,3.131,0,0,0,25.446,0ZM8.143,27.686a.876.876,0,0,1-.814.814H4.886a.876.876,0,0,1-.814-.814V25.243a.876.876,0,0,1,.814-.814H7.329a.876.876,0,0,1,.814.814Zm0-8.143a.876.876,0,0,1-.814.814H4.886a.876.876,0,0,1-.814-.814V17.1a.876.876,0,0,1,.814-.814H7.329a.876.876,0,0,1,.814.814Zm8.143,8.143a.876.876,0,0,1-.814.814H13.029a.876.876,0,0,1-.814-.814V25.243a.876.876,0,0,1,.814-.814h2.443a.876.876,0,0,1,.814.814Zm0-8.143a.876.876,0,0,1-.814.814H13.029a.876.876,0,0,1-.814-.814V17.1a.876.876,0,0,1,.814-.814h2.443a.876.876,0,0,1,.814.814Zm8.143,8.143a.876.876,0,0,1-.814.814H21.171a.876.876,0,0,1-.814-.814V17.1a.876.876,0,0,1,.814-.814h2.443a.876.876,0,0,1,.814.814V27.686Zm0-16.286a.876.876,0,0,1-.814.814H4.886a.876.876,0,0,1-.814-.814V4.886a.876.876,0,0,1,.814-.814H23.614a.876.876,0,0,1,.814.814Z" fill="#fff"/>
</svg>
