<svg xmlns="http://www.w3.org/2000/svg" width="14.975" height="16.639" viewBox="0 0 14.975 16.639">
  <path id="Icon_material-date-range" data-name="Icon material-date-range" d="M9.492,10.487H7.828v1.664H9.492Zm3.328,0H11.155v1.664h1.664Zm3.328,0H14.483v1.664h1.664Zm1.664-5.824h-.832V3H15.315V4.664H8.66V3H7V4.664H6.164A1.656,1.656,0,0,0,4.508,6.328L4.5,17.975a1.663,1.663,0,0,0,1.664,1.664H17.811a1.669,1.669,0,0,0,1.664-1.664V6.328A1.669,1.669,0,0,0,17.811,4.664Zm0,13.311H6.164V8.824H17.811Z" transform="translate(-4.5 -3)" fill="#47a83e"/>
</svg>
