<svg xmlns="http://www.w3.org/2000/svg" width="36" height="36" viewBox="0 0 36 36">
  <path id="Icon_awesome-stamp" data-name="Icon awesome-stamp" d="M2.25,36h31.5V31.5H2.25Zm27-18H24.57a2.07,2.07,0,0,1-2.07-2.07v-.665A11.945,11.945,0,0,1,24.009,9.8a6.666,6.666,0,0,0,.636-4.248,6.751,6.751,0,0,0-13.4,1.2,6.6,6.6,0,0,0,.611,2.783A15.312,15.312,0,0,1,13.5,15.925v0A2.07,2.07,0,0,1,11.43,18H6.75A6.75,6.75,0,0,0,0,24.75V27a2.25,2.25,0,0,0,2.25,2.25h31.5A2.25,2.25,0,0,0,36,27V24.75A6.75,6.75,0,0,0,29.25,18Z" transform="translate(0 0)" fill="#fff"/>
</svg>
