<svg xmlns="http://www.w3.org/2000/svg" xmlns:xlink="http://www.w3.org/1999/xlink" width="31.843" height="31.932" viewBox="0 0 31.843 31.932">
  <defs>
    <linearGradient id="linear-gradient" x1="0.5" x2="0.5" y2="1" gradientUnits="objectBoundingBox">
      <stop offset="0" stop-color="#3e5fa8"/>
      <stop offset="1" stop-color="#2aa977"/>
    </linearGradient>
  </defs>
  <g id="Layer_2" transform="translate(-27.5 -26.86)">
    <g id="Group_984" data-name="Group 984" transform="translate(27.5 26.86)">
      <path id="Path_647" data-name="Path 647" d="M59.65,199.311a5.571,5.571,0,1,0,5.571-5.571A5.578,5.578,0,0,0,59.65,199.311Zm5.571-3.342a3.342,3.342,0,1,1-3.342,3.342A3.346,3.346,0,0,1,65.221,195.97Z" transform="translate(-57.41 -182.112)" fill="url(#linear-gradient)"/>
      <path id="Path_648" data-name="Path 648" d="M27.5,376.173a1.115,1.115,0,0,0,1.115,1.115H42.008a1.115,1.115,0,0,0,1.115-1.115,6.971,6.971,0,0,0-6.963-6.963h-1.7A6.971,6.971,0,0,0,27.5,376.173Zm6.963-4.732h1.7a4.741,4.741,0,0,1,4.6,3.618h-10.9A4.742,4.742,0,0,1,34.463,371.44Z" transform="translate(-27.5 -345.356)" fill="url(#linear-gradient)"/>
      <path id="Path_649" data-name="Path 649" d="M303.573,32.431A5.571,5.571,0,1,0,298,38,5.578,5.578,0,0,0,303.573,32.431Zm-8.913,0A3.342,3.342,0,1,1,298,35.773,3.345,3.345,0,0,1,294.66,32.431Z" transform="translate(-273.97 -26.86)" fill="url(#linear-gradient)"/>
      <path id="Path_650" data-name="Path 650" d="M268.931,202.34h-1.7a6.971,6.971,0,0,0-6.963,6.963,1.115,1.115,0,0,0,1.115,1.115h13.394a1.115,1.115,0,0,0,1.115-1.115A6.97,6.97,0,0,0,268.931,202.34Zm-6.3,5.847a4.741,4.741,0,0,1,4.6-3.618h1.7a4.741,4.741,0,0,1,4.6,3.618Z" transform="translate(-244.051 -190.113)" fill="url(#linear-gradient)"/>
      <path id="Path_651" data-name="Path 651" d="M264.755,367.932a1.115,1.115,0,0,0,0,2.23h6.463a1.115,1.115,0,0,0,1.115-1.115v-3.69l.148.148a1.115,1.115,0,0,0,1.576-1.577l-2.051-2.051c-.026-.026-.054-.051-.082-.075l-.038-.029-.049-.037c-.015-.01-.031-.019-.047-.029l-.046-.027-.049-.024-.049-.023c-.016-.007-.033-.012-.049-.018l-.054-.019-.049-.013-.057-.014-.056-.008-.052-.008a.964.964,0,0,0-.1,0h-.022c-.033,0-.065,0-.1,0l-.054.008-.054.008-.059.014-.047.013-.056.02-.047.017c-.017.007-.033.015-.051.024l-.049.023c-.016.008-.031.018-.047.028s-.031.018-.047.029-.033.024-.049.036-.026.018-.038.029c-.029.024-.056.048-.081.074l-2.051,2.051a1.115,1.115,0,1,0,1.576,1.577l.148-.148v2.575Z" transform="translate(-247.186 -338.23)" fill="url(#linear-gradient)"/>
      <path id="Path_652" data-name="Path 652" d="M103.842,30.73a1.115,1.115,0,1,0,0-2.23H97.379a1.115,1.115,0,0,0-1.115,1.115V33.3l-.148-.148a1.115,1.115,0,1,0-1.577,1.577l2.051,2.051c.026.026.054.051.082.075.013.01.025.019.038.029s.033.025.049.036l.047.029c.015.009.03.019.046.027L96.9,37c.016.008.032.016.049.022l.049.018.053.019.05.013.056.013c.02,0,.039.006.059.009l.049.007c.036,0,.073.006.11.006s.073,0,.11-.006l.049-.007c.02,0,.039,0,.059-.009s.037-.009.055-.013.033-.008.05-.013l.053-.019c.017-.006.033-.011.049-.018L97.853,37l.05-.024.046-.027L98,36.923c.017-.011.033-.024.049-.036s.026-.018.038-.029a1.045,1.045,0,0,0,.082-.075l2.051-2.051a1.115,1.115,0,0,0-1.577-1.577l-.148.148V30.73Z" transform="translate(-89.564 -28.386)" fill="url(#linear-gradient)"/>
    </g>
  </g>
</svg>
