<svg xmlns="http://www.w3.org/2000/svg" xmlns:xlink="http://www.w3.org/1999/xlink" width="20.407" height="19" viewBox="0 0 20.407 19">
  <defs>
    <linearGradient id="linear-gradient" x1="0.5" x2="0.5" y2="1" gradientUnits="objectBoundingBox">
      <stop offset="0" stop-color="#47a83e"/>
      <stop offset="1" stop-color="#2aa977"/>
    </linearGradient>
  </defs>
  <g id="Page-1" transform="translate(-131 18)">
    <g id="icon-124-printer-text" transform="translate(131 -18)">
      <path id="printer-text" d="M134.519-12.37v-4.224A1.406,1.406,0,0,1,135.924-18h10.56a1.4,1.4,0,0,1,1.405,1.405v4.224Zm-.7,11.259h-.708A2.109,2.109,0,0,1,131-3.222V-9.556a2.109,2.109,0,0,1,2.107-2.11H149.3a2.109,2.109,0,0,1,2.107,2.11v6.335a2.109,2.109,0,0,1-2.107,2.11h-.708v-5.63H133.815v5.63Zm.7-4.926v5.63A1.4,1.4,0,0,0,135.924,1h10.56a1.4,1.4,0,0,0,1.405-1.407v-5.63Zm12.667-2.111a.7.7,0,0,0,.7-.7.7.7,0,0,0-.7-.7.7.7,0,0,0-.7.7.7.7,0,0,0,.7.7ZM135.926-3.926v.7h10.556v-.7Zm0,2.111v.7h10.556v-.7Z" transform="translate(-131 18)" fill-rule="evenodd" fill="url(#linear-gradient)"/>
    </g>
  </g>
</svg>
