<svg xmlns="http://www.w3.org/2000/svg" width="39.81" height="39.832" viewBox="0 0 39.81 39.832">
  <g id="usability_audit" transform="translate(-5.114 -5.5)">
    <g id="Group_1718" data-name="Group 1718" transform="translate(5.114 5.5)">
      <path id="Path_851" data-name="Path 851" d="M16.8,17.04h.785l.187,1.309a.933.933,0,0,0,.829.751l1.132.115a4.48,4.48,0,0,0,.569.011,4.894,4.894,0,0,0,.9-.086l.4-.086a1.076,1.076,0,0,0,.911-.685l.377-1.329a.6.6,0,0,1,1.117,0l.378,1.325a1.173,1.173,0,0,0,.911.775l.4.034a5.12,5.12,0,0,0,.9.051,3.924,3.924,0,0,0,.569-.046l1.132-.168c.406-.058.779-.255.829-.661l.186-1.31h.83c.005.354.007.72.007,1.117A21.819,21.819,0,0,0,30.89,12.2c0-2.171-.372-5.212-2.978-5.212C26.827,5.717,24.974,5.5,22.7,5.5c-5.584,0-6.7,3.35-6.7,6.7a20.786,20.786,0,0,0,.745,5.956C16.745,17.742,16.766,17.382,16.8,17.04Zm5.734-.485-.383,1.534a.92.92,0,0,1-.622.593l-.4.08a4.525,4.525,0,0,1-.825.068,3.847,3.847,0,0,1-.515-.031l-1.132-.162a.665.665,0,0,1-.512-.522l-.188-1.5a.392.392,0,0,1,.328-.429l1.132-.162a5.639,5.639,0,0,1,.754-.045,5.38,5.38,0,0,1,.622.032l1.5.188a.273.273,0,0,1,.243.355Zm6.221,1.561a.666.666,0,0,1-.512.522l-1.132.162a3.863,3.863,0,0,1-.515.031,4.539,4.539,0,0,1-.826-.068l-.4-.08a.916.916,0,0,1-.622-.593l-.384-1.534A.274.274,0,0,1,24.6,16.2l1.5-.188a5.389,5.389,0,0,1,.622-.032,5.537,5.537,0,0,1,.755.045l1.131.162a.392.392,0,0,1,.328.429Zm.5-1.82a.754.754,0,0,0-.587-.478l-1.132-.162a6.147,6.147,0,0,0-.807-.048,5.7,5.7,0,0,0-.669.035l-1.5.188a.637.637,0,0,0-.544.465H22.879a.638.638,0,0,0-.544-.465l-1.5-.188a5.71,5.71,0,0,0-.669-.035,6.155,6.155,0,0,0-.807.048l-1.132.162a.755.755,0,0,0-.587.478h-.753c.165-1.083.438-1.972.6-3.35.086-.708.156-.945.362-.945a9.683,9.683,0,0,0,4.105.945c3.246,0,4.97-1.962,6.01-1.962a.776.776,0,0,1,.691.473,9.7,9.7,0,0,1,1.46,4.839ZM22.7,6.245c2.159,0,3.775.208,4.645,1.228l.223.261h.343c.552,0,2.234,0,2.234,4.467q0,.295-.007.578a14.125,14.125,0,0,0-.836-1.692,1.5,1.5,0,0,0-1.337-.848,3.949,3.949,0,0,0-1.794.676A8.21,8.21,0,0,1,21.956,12.2a6.975,6.975,0,0,1-3.286-.694,1.93,1.93,0,0,0-.819-.251h0c-.9,0-1.022.943-1.1,1.581,0-.207-.007-.418-.007-.636C16.745,8.081,18.581,6.245,22.7,6.245Z" transform="translate(-7.895 -5.5)" fill="#fff"/>
      <path id="Path_852" data-name="Path 852" d="M34.214,25.756a7.828,7.828,0,0,0,.329-1.771.208.208,0,0,0,.021,0,.747.747,0,0,0,.745-.745V22.5c0,.409-.335,1.117-.745,1.117H33.9a.736.736,0,0,0-.1.325,7.556,7.556,0,0,1-.507,2.24A8.835,8.835,0,0,1,34.214,25.756Z" transform="translate(-12.313 -9.843)" fill="#fff"/>
      <path id="Path_853" data-name="Path 853" d="M42.279,38.761a3.477,3.477,0,0,0-2.557-2.641l-3.394-.679v-.372L31.489,33.58V32.355a6.724,6.724,0,0,0-.745,1.147v2.1a3.541,3.541,0,0,1-.735.762c0,.065-.01.127-.01.192a6.876,6.876,0,0,0,.036.692,4.838,4.838,0,0,0,.481-.335l-.337,1.157A6.665,6.665,0,0,0,30.6,39.3l1.4-4.791,3.592,1.1V36.8l-1.393.557-1.048.419.8.8,1.014,1.014-2.032,2.5a6.67,6.67,0,0,0,.643.388l2.389-2.939-1.489-1.489,1.861-.745V36.2l3.248.65a2.763,2.763,0,0,1,1.969,2.033l.188,1.132a7.711,7.711,0,0,1,.077.867,6.73,6.73,0,0,0,.664-.94c0-.016,0-.035-.007-.049C42.364,39.268,42.279,38.761,42.279,38.761Z" transform="translate(-11.472 -12.361)" fill="#fff"/>
      <path id="Path_854" data-name="Path 854" d="M30.343,42.974c-.109,0-.217-.013-.326-.016L20.664,48.8l-.422-.264,5.544-6.823c-.215-.128-.424-.264-.628-.409l-3.491,4.3L23.4,39.653a8.864,8.864,0,0,1-.552-.765l-2.194,7.523-3.49-12.02a5.415,5.415,0,0,0,3.5,1.138,6.615,6.615,0,0,0,.869-.06c-.039-.243-.071-.488-.09-.736a5.916,5.916,0,0,1-.779.052,4.313,4.313,0,0,1-3.723-1.7v-3.03a5.591,5.591,0,0,0,3.723,1.75,4.063,4.063,0,0,0,1.079-.156,8.8,8.8,0,0,1,.3-.891,3.607,3.607,0,0,1-1.376.3c-2.685,0-5.738-3.66-5.938-7.12a.73.73,0,0,0-.1-.325h-.659c-.409,0-.745-.707-.745-1.117v.745a.747.747,0,0,0,.745.745.159.159,0,0,0,.02,0A9.548,9.548,0,0,0,16.2,29.266v1.8l-4.839,1.489v.373L7.963,33.6a3.477,3.477,0,0,0-2.557,2.641l-.188,1.132a12.8,12.8,0,0,0-.066,2.616l15.513,9.683,10.877-6.791A8.955,8.955,0,0,1,30.343,42.974ZM12.1,33.1,15.693,32,19.6,45.458l-6.87-8.39,1.012-1.013.8-.8-1.048-.419L12.1,34.281ZM5.873,39.562a11.8,11.8,0,0,1,.08-2.065l.188-1.132A2.719,2.719,0,0,1,8.11,34.333l3.248-.65v1.1l1.861.745L11.73,37.018l8.6,10.5-.264.9Z" transform="translate(-5.114 -9.843)" fill="#fff"/>
      <g id="Group_1717" data-name="Group 1717" transform="translate(17.039 16.007)">
        <path id="Path_855" data-name="Path 855" d="M50.554,47.32l-6.392-6.392a.715.715,0,0,0-.867-.123l-.622-.622a8.21,8.21,0,1,0-1.489,1.489l.622.622a.739.739,0,0,0,.123.867l6.392,6.392a.748.748,0,0,0,1.053,0l1.181-1.181A.746.746,0,0,0,50.554,47.32ZM28.745,35.19a7.445,7.445,0,1,1,7.445,7.445A7.446,7.446,0,0,1,28.745,35.19Zm13.445,5.563.547.547-.436.436-.547-.547Q41.978,40.978,42.189,40.753Zm6.658,8.275-6.392-6.392,1.179-1.179h0l6.392,6.392Z" transform="translate(-28 -27)" fill="#fff"/>
      </g>
    </g>
  </g>
</svg>
