<svg id="Group_470" data-name="Group 470" xmlns="http://www.w3.org/2000/svg" width="47.081" height="31.794" viewBox="0 0 47.081 31.794">
  <g id="Group_408" data-name="Group 408">
    <path id="Path_349" data-name="Path 349" d="M351.837-139.09A2.867,2.867,0,0,1,354.8-136.2a2.867,2.867,0,0,1-2.962,2.889,2.858,2.858,0,0,1-2.926-2.889A2.858,2.858,0,0,1,351.837-139.09Zm-2.487,7.5H354.4v19.127H349.35Z" transform="translate(-348.911 139.09)" fill="#fff"/>
    <path id="Path_350" data-name="Path 350" d="M380.753-114.913c-3.767,0-5.157,2.34-5.157,6.144v8.338h-5.047v-19.127h4.937v2.779a5.564,5.564,0,0,1,5.266-3.255Z" transform="translate(-362.576 127.055)" fill="#fff"/>
    <path id="Path_351" data-name="Path 351" d="M429.529-100.431h-5.047v-11.447c0-2.268-1.134-3.621-3-3.621-1.828,0-3.108,1.353-3.108,3.657v11.411h-5.047v-11.63c0-2.158-1.1-3.438-2.962-3.438-1.792,0-3.109,1.353-3.109,3.621v11.447H402.21v-19.127h4.937v2.231a5.478,5.478,0,0,1,4.974-2.706,5.684,5.684,0,0,1,5.23,2.852,6.472,6.472,0,0,1,5.668-2.852c4.352,0,6.51,2.889,6.51,6.985Z" transform="translate(-382.571 127.055)" fill="#fff"/>
  </g>
  <g id="Group_409" data-name="Group 409" transform="translate(0.35 28.695)">
    <path id="Path_352" data-name="Path 352" d="M350.292-58.864a.25.25,0,0,1-.182.073.24.24,0,0,1-.177-.073.24.24,0,0,1-.073-.176v-1.922a.237.237,0,0,1,.075-.176.251.251,0,0,1,.182-.073.241.241,0,0,1,.177.073.24.24,0,0,1,.073.176v1.922A.236.236,0,0,1,350.292-58.864Z" transform="translate(-349.861 61.212)" fill="#fff"/>
    <path id="Path_353" data-name="Path 353" d="M354.032-57.769a.221.221,0,0,1-.162.066.217.217,0,0,1-.159-.066.217.217,0,0,1-.066-.159v-.838a.311.311,0,0,0-.085-.251.356.356,0,0,0-.232-.069.427.427,0,0,0-.127.018.513.513,0,0,0-.109.046.5.5,0,0,0-.089.064.492.492,0,0,0-.067.075v.955a.216.216,0,0,1-.066.159.221.221,0,0,1-.162.066.216.216,0,0,1-.158-.066.216.216,0,0,1-.066-.159v-1.319a.211.211,0,0,1,.066-.157.227.227,0,0,1,.165-.064.214.214,0,0,1,.157.064.214.214,0,0,1,.064.157v.025a.78.78,0,0,1,.1-.1.661.661,0,0,1,.136-.085.848.848,0,0,1,.167-.061.8.8,0,0,1,.2-.023.552.552,0,0,1,.423.148.567.567,0,0,1,.137.4v1.013A.217.217,0,0,1,354.032-57.769Z" transform="translate(-351.517 60.124)" fill="#fff"/>
    <path id="Path_354" data-name="Path 354" d="M358.651-58.658a.2.2,0,0,1-.016.08.163.163,0,0,1-.056.066.292.292,0,0,1-.111.045.827.827,0,0,1-.182.016.5.5,0,0,1-.361-.119.466.466,0,0,1-.124-.351v-.9h-.111a.187.187,0,0,1-.139-.059.2.2,0,0,1-.057-.144.186.186,0,0,1,.057-.136.19.19,0,0,1,.139-.057h.111v-.267a.216.216,0,0,1,.066-.159.221.221,0,0,1,.164-.066.215.215,0,0,1,.158.066.217.217,0,0,1,.065.159v.267h.178a.184.184,0,0,1,.136.059.2.2,0,0,1,.057.141.189.189,0,0,1-.057.139.185.185,0,0,1-.136.057h-.178v.777a.179.179,0,0,0,.052.146.164.164,0,0,0,.105.043h.039a.189.189,0,0,1,.148.057A.2.2,0,0,1,358.651-58.658Z" transform="translate(-354.683 60.894)" fill="#fff"/>
    <path id="Path_355" data-name="Path 355" d="M362.8-58.648a.2.2,0,0,1-.061.145.2.2,0,0,1-.15.062h-1.063a.477.477,0,0,0,.048.155.413.413,0,0,0,.1.126.494.494,0,0,0,.15.086.582.582,0,0,0,.2.032.733.733,0,0,0,.162-.021.726.726,0,0,0,.173-.064.2.2,0,0,1,.089-.021.2.2,0,0,1,.132.05.162.162,0,0,1,.061.132.149.149,0,0,1-.078.136.951.951,0,0,1-.28.114,1.351,1.351,0,0,1-.308.035,1.025,1.025,0,0,1-.366-.064.86.86,0,0,1-.293-.182.834.834,0,0,1-.192-.285.974.974,0,0,1-.07-.374.945.945,0,0,1,.066-.351.876.876,0,0,1,.184-.287.876.876,0,0,1,.282-.193.892.892,0,0,1,.36-.071.883.883,0,0,1,.273.041.823.823,0,0,1,.23.116.789.789,0,0,1,.18.183,1,1,0,0,1,.123.241c.012.041.023.083.034.129A.568.568,0,0,1,362.8-58.648Zm-.431-.1a.448.448,0,0,0-.029-.129.37.37,0,0,0-.075-.123.4.4,0,0,0-.13-.092.449.449,0,0,0-.191-.037.436.436,0,0,0-.184.035.4.4,0,0,0-.127.091.446.446,0,0,0-.078.123.477.477,0,0,0-.036.132Z" transform="translate(-356.932 60.124)" fill="#fff"/>
    <path id="Path_356" data-name="Path 356" d="M368.156-57.842a.856.856,0,0,1-.085.4.688.688,0,0,1-.22.249.848.848,0,0,1-.3.127,1.537,1.537,0,0,1-.325.036,1.729,1.729,0,0,1-.178-.011,1.443,1.443,0,0,1-.2-.035.838.838,0,0,1-.175-.066.3.3,0,0,1-.118-.1.182.182,0,0,1-.028-.1.176.176,0,0,1,.057-.135.186.186,0,0,1,.132-.054.206.206,0,0,1,.1.025.664.664,0,0,0,.194.082.9.9,0,0,0,.216.025.738.738,0,0,0,.166-.02.424.424,0,0,0,.153-.071.361.361,0,0,0,.112-.135.468.468,0,0,0,.043-.213v-.175a.766.766,0,0,1-.238.2.617.617,0,0,1-.295.071.785.785,0,0,1-.3-.057.663.663,0,0,1-.241-.168.789.789,0,0,1-.161-.274,1.12,1.12,0,0,1-.059-.378,1.141,1.141,0,0,1,.057-.375.794.794,0,0,1,.159-.276.664.664,0,0,1,.241-.169.8.8,0,0,1,.3-.057.663.663,0,0,1,.293.066.692.692,0,0,1,.24.2v-.018a.218.218,0,0,1,.065-.159.222.222,0,0,1,.165-.066.212.212,0,0,1,.157.066.218.218,0,0,1,.066.159Zm-.453-.492v-.556a.369.369,0,0,0-.072-.078.538.538,0,0,0-.1-.063.5.5,0,0,0-.109-.041.469.469,0,0,0-.115-.014.468.468,0,0,0-.177.032.366.366,0,0,0-.138.094.445.445,0,0,0-.09.15.571.571,0,0,0-.032.2.572.572,0,0,0,.032.2.447.447,0,0,0,.09.15.37.37,0,0,0,.138.094.468.468,0,0,0,.177.032.488.488,0,0,0,.115-.014.5.5,0,0,0,.109-.041.538.538,0,0,0,.1-.062A.377.377,0,0,0,367.7-58.333Z" transform="translate(-360.312 60.124)" fill="#fff"/>
    <path id="Path_357" data-name="Path 357" d="M373.393-59.239a.207.207,0,0,1-.062.161.29.29,0,0,1-.155.071.709.709,0,0,0-.2.057.39.39,0,0,0-.155.125v.934a.218.218,0,0,1-.064.159.21.21,0,0,1-.157.066h-.007a.217.217,0,0,1-.159-.066.215.215,0,0,1-.066-.159V-59.21a.21.21,0,0,1,.066-.157.228.228,0,0,1,.166-.064.213.213,0,0,1,.157.064.213.213,0,0,1,.064.157v.036q.032-.043.07-.087a.509.509,0,0,1,.084-.08.461.461,0,0,1,.1-.059.291.291,0,0,1,.118-.024.2.2,0,0,1,.15.054A.185.185,0,0,1,373.393-59.239Z" transform="translate(-364.076 60.087)" fill="#fff"/>
    <path id="Path_358" data-name="Path 358" d="M377.15-57.927a.218.218,0,0,1-.064.159.21.21,0,0,1-.157.066h-.036a.186.186,0,0,1-.139-.059.2.2,0,0,1-.057-.14.6.6,0,0,1-.232.162.811.811,0,0,1-.314.059.666.666,0,0,1-.21-.035.619.619,0,0,1-.192-.106.541.541,0,0,1-.141-.177.542.542,0,0,1-.056-.254.55.55,0,0,1,.056-.258.505.505,0,0,1,.141-.173.563.563,0,0,1,.192-.1.767.767,0,0,1,.21-.031.9.9,0,0,1,.316.054.532.532,0,0,1,.23.159v-.233a.254.254,0,0,0-.1-.212.442.442,0,0,0-.275-.079.812.812,0,0,0-.2.025.59.59,0,0,0-.185.086.164.164,0,0,1-.082.025.179.179,0,0,1-.116-.046.158.158,0,0,1-.055-.127.175.175,0,0,1,.025-.089.323.323,0,0,1,.125-.109.918.918,0,0,1,.187-.074,1.609,1.609,0,0,1,.2-.042,1.335,1.335,0,0,1,.176-.014,1.219,1.219,0,0,1,.282.032.666.666,0,0,1,.241.109.546.546,0,0,1,.168.2.684.684,0,0,1,.062.31Zm-.452-.21v-.214a.346.346,0,0,0-.156-.114.577.577,0,0,0-.21-.038.386.386,0,0,0-.231.068.224.224,0,0,0-.1.194.216.216,0,0,0,.1.188.393.393,0,0,0,.231.066.592.592,0,0,0,.21-.037A.351.351,0,0,0,376.7-58.137Z" transform="translate(-366.086 60.124)" fill="#fff"/>
    <path id="Path_359" data-name="Path 359" d="M381.672-58.658a.2.2,0,0,1-.016.08.159.159,0,0,1-.055.066.3.3,0,0,1-.111.045.827.827,0,0,1-.182.016.5.5,0,0,1-.362-.119.468.468,0,0,1-.124-.351v-.9h-.111a.185.185,0,0,1-.139-.059.2.2,0,0,1-.057-.144.185.185,0,0,1,.057-.136.189.189,0,0,1,.139-.057h.111v-.267a.218.218,0,0,1,.066-.159.222.222,0,0,1,.164-.066.214.214,0,0,1,.158.066.218.218,0,0,1,.066.159v.267h.178a.183.183,0,0,1,.136.059.2.2,0,0,1,.057.141.188.188,0,0,1-.057.139.184.184,0,0,1-.136.057h-.178v.777a.18.18,0,0,0,.051.146.164.164,0,0,0,.106.043h.039a.188.188,0,0,1,.148.057A.2.2,0,0,1,381.672-58.658Z" transform="translate(-369.221 60.894)" fill="#fff"/>
    <path id="Path_360" data-name="Path 360" d="M385.826-58.648a.2.2,0,0,1-.061.145.2.2,0,0,1-.15.062h-1.063a.461.461,0,0,0,.048.155.41.41,0,0,0,.1.126.5.5,0,0,0,.15.086.585.585,0,0,0,.2.032.73.73,0,0,0,.162-.021.735.735,0,0,0,.173-.064.2.2,0,0,1,.089-.021.2.2,0,0,1,.132.05.161.161,0,0,1,.061.132.149.149,0,0,1-.078.136.961.961,0,0,1-.28.114,1.355,1.355,0,0,1-.308.035,1.022,1.022,0,0,1-.365-.064.853.853,0,0,1-.293-.182.83.83,0,0,1-.193-.285.974.974,0,0,1-.069-.374.943.943,0,0,1,.066-.351.886.886,0,0,1,.184-.287.875.875,0,0,1,.282-.193.891.891,0,0,1,.36-.071.887.887,0,0,1,.273.041.833.833,0,0,1,.23.116.788.788,0,0,1,.18.183.982.982,0,0,1,.123.241c.012.041.023.083.034.129A.571.571,0,0,1,385.826-58.648Zm-.432-.1a.446.446,0,0,0-.029-.129.376.376,0,0,0-.075-.123.4.4,0,0,0-.13-.092.446.446,0,0,0-.191-.037.433.433,0,0,0-.183.035.4.4,0,0,0-.127.091.449.449,0,0,0-.079.123.477.477,0,0,0-.036.132Z" transform="translate(-371.471 60.124)" fill="#fff"/>
    <path id="Path_361" data-name="Path 361" d="M391.181-59.016a.217.217,0,0,1-.065.159.224.224,0,0,1-.165.066.213.213,0,0,1-.157-.066.216.216,0,0,1-.066-.159v-.018a.726.726,0,0,1-.24.2.648.648,0,0,1-.293.067.747.747,0,0,1-.3-.061A.689.689,0,0,1,389.65-59a.824.824,0,0,1-.161-.284,1.169,1.169,0,0,1-.059-.383,1.161,1.161,0,0,1,.057-.378.849.849,0,0,1,.159-.285.687.687,0,0,1,.243-.18.755.755,0,0,1,.306-.062.669.669,0,0,1,.291.066.687.687,0,0,1,.241.2v-.674a.218.218,0,0,1,.066-.159.222.222,0,0,1,.164-.066.215.215,0,0,1,.158.066.219.219,0,0,1,.065.159Zm-.453-.353v-.609a.428.428,0,0,0-.168-.141.5.5,0,0,0-.226-.055.434.434,0,0,0-.177.035.378.378,0,0,0-.138.1.481.481,0,0,0-.09.16.61.61,0,0,0-.032.2.61.61,0,0,0,.032.2.462.462,0,0,0,.09.158.382.382,0,0,0,.138.1.434.434,0,0,0,.177.036.5.5,0,0,0,.226-.055A.421.421,0,0,0,390.728-59.369Z" transform="translate(-374.85 61.212)" fill="#fff"/>
    <path id="Path_362" data-name="Path 362" d="M399.815-60.387a.809.809,0,0,1-.045.278.685.685,0,0,1-.12.209.666.666,0,0,1-.168.143.646.646,0,0,1-.189.077l.328.556a.254.254,0,0,1,.032.121.255.255,0,0,1-.068.171.227.227,0,0,1-.181.078.24.24,0,0,1-.125-.034.267.267,0,0,1-.092-.094l-.4-.738h-.37V-59a.236.236,0,0,1-.075.176.25.25,0,0,1-.182.073.24.24,0,0,1-.177-.073.24.24,0,0,1-.073-.176v-1.865a.275.275,0,0,1,.083-.2.275.275,0,0,1,.2-.084h.826a.92.92,0,0,1,.333.057.716.716,0,0,1,.251.161.7.7,0,0,1,.158.244A.825.825,0,0,1,399.815-60.387Zm-.87-.321h-.531v.642h.531a.382.382,0,0,0,.255-.085.293.293,0,0,0,.1-.235.294.294,0,0,0-.1-.235A.382.382,0,0,0,398.945-60.708Z" transform="translate(-380.204 61.175)" fill="#fff"/>
    <path id="Path_363" data-name="Path 363" d="M405.258-58.648a.2.2,0,0,1-.061.145.2.2,0,0,1-.15.062h-1.062a.465.465,0,0,0,.048.155.416.416,0,0,0,.1.126.494.494,0,0,0,.15.086.582.582,0,0,0,.2.032.73.73,0,0,0,.163-.021.727.727,0,0,0,.173-.064.2.2,0,0,1,.09-.021.2.2,0,0,1,.132.05.162.162,0,0,1,.061.132.149.149,0,0,1-.078.136.951.951,0,0,1-.28.114,1.351,1.351,0,0,1-.308.035,1.025,1.025,0,0,1-.366-.064.86.86,0,0,1-.293-.182.834.834,0,0,1-.192-.285.974.974,0,0,1-.07-.374.943.943,0,0,1,.066-.351.874.874,0,0,1,.184-.287.875.875,0,0,1,.282-.193.891.891,0,0,1,.36-.071.887.887,0,0,1,.273.041.832.832,0,0,1,.23.116.8.8,0,0,1,.18.183.982.982,0,0,1,.123.241c.012.041.023.083.034.129A.571.571,0,0,1,405.258-58.648Zm-.431-.1a.461.461,0,0,0-.029-.129.379.379,0,0,0-.075-.123.4.4,0,0,0-.13-.092.449.449,0,0,0-.191-.037.436.436,0,0,0-.184.035.4.4,0,0,0-.126.091.44.44,0,0,0-.078.123.477.477,0,0,0-.036.132Z" transform="translate(-383.742 60.124)" fill="#fff"/>
    <path id="Path_364" data-name="Path 364" d="M410.43-59.2a.194.194,0,0,1-.014.078l-.5,1.244a.343.343,0,0,1-.125.155.325.325,0,0,1-.189.059h-.007a.332.332,0,0,1-.191-.059.334.334,0,0,1-.126-.155l-.5-1.244a.218.218,0,0,1-.018-.082.222.222,0,0,1,.064-.152.22.22,0,0,1,.168-.07.213.213,0,0,1,.123.038.211.211,0,0,1,.08.1l.4,1.08.4-1.076a.208.208,0,0,1,.081-.105.224.224,0,0,1,.125-.038.213.213,0,0,1,.166.07A.225.225,0,0,1,410.43-59.2Z" transform="translate(-387.055 60.082)" fill="#fff"/>
    <path id="Path_365" data-name="Path 365" d="M415.573-58.648a.2.2,0,0,1-.061.145.2.2,0,0,1-.15.062H414.3a.459.459,0,0,0,.048.155.41.41,0,0,0,.1.126.5.5,0,0,0,.15.086.58.58,0,0,0,.2.032.727.727,0,0,0,.162-.021.736.736,0,0,0,.173-.064.2.2,0,0,1,.089-.021.2.2,0,0,1,.132.05.161.161,0,0,1,.061.132.149.149,0,0,1-.078.136.959.959,0,0,1-.28.114,1.356,1.356,0,0,1-.308.035,1.022,1.022,0,0,1-.366-.064.853.853,0,0,1-.293-.182.831.831,0,0,1-.193-.285.974.974,0,0,1-.069-.374.937.937,0,0,1,.066-.351.873.873,0,0,1,.184-.287.869.869,0,0,1,.282-.193.892.892,0,0,1,.36-.071.887.887,0,0,1,.273.041.828.828,0,0,1,.23.116.78.78,0,0,1,.18.183.98.98,0,0,1,.123.241c.012.041.023.083.034.129A.569.569,0,0,1,415.573-58.648Zm-.431-.1a.449.449,0,0,0-.029-.129.378.378,0,0,0-.075-.123.4.4,0,0,0-.13-.092.446.446,0,0,0-.191-.037.434.434,0,0,0-.184.035.4.4,0,0,0-.127.091.448.448,0,0,0-.078.123.478.478,0,0,0-.036.132Z" transform="translate(-390.257 60.124)" fill="#fff"/>
    <path id="Path_366" data-name="Path 366" d="M421.026-57.769a.221.221,0,0,1-.162.066.217.217,0,0,1-.159-.066.217.217,0,0,1-.066-.159v-.838a.311.311,0,0,0-.085-.251.356.356,0,0,0-.232-.069.427.427,0,0,0-.127.018.513.513,0,0,0-.109.046.515.515,0,0,0-.089.064.486.486,0,0,0-.067.075v.955a.216.216,0,0,1-.066.159.22.22,0,0,1-.162.066.217.217,0,0,1-.159-.066.216.216,0,0,1-.066-.159v-1.319a.21.21,0,0,1,.066-.157.227.227,0,0,1,.165-.064.213.213,0,0,1,.157.064.214.214,0,0,1,.065.157v.025a.806.806,0,0,1,.1-.1.68.68,0,0,1,.136-.085.848.848,0,0,1,.167-.061.8.8,0,0,1,.2-.023.552.552,0,0,1,.423.148.568.568,0,0,1,.137.4v1.013A.217.217,0,0,1,421.026-57.769Z" transform="translate(-393.826 60.124)" fill="#fff"/>
    <path id="Path_367" data-name="Path 367" d="M426.629-57.732a.221.221,0,0,1-.162.066.216.216,0,0,1-.158-.066.217.217,0,0,1-.066-.159V-57.9a.85.85,0,0,1-.241.18.77.77,0,0,1-.366.08.553.553,0,0,1-.42-.144.559.559,0,0,1-.136-.4V-59.21a.21.21,0,0,1,.066-.157.228.228,0,0,1,.166-.064.213.213,0,0,1,.157.064.213.213,0,0,1,.064.157v.845a.419.419,0,0,0,.023.15.245.245,0,0,0,.064.1.243.243,0,0,0,.1.054.51.51,0,0,0,.13.016.436.436,0,0,0,.231-.061.613.613,0,0,0,.161-.136v-.966a.212.212,0,0,1,.066-.157.228.228,0,0,1,.166-.064.214.214,0,0,1,.157.064.214.214,0,0,1,.064.157v1.319A.217.217,0,0,1,426.629-57.732Z" transform="translate(-397.364 60.087)" fill="#fff"/>
    <path id="Path_368" data-name="Path 368" d="M432.13-58.648a.2.2,0,0,1-.061.145.2.2,0,0,1-.15.062h-1.062a.466.466,0,0,0,.048.155.417.417,0,0,0,.1.126.493.493,0,0,0,.15.086.582.582,0,0,0,.2.032.73.73,0,0,0,.162-.021.727.727,0,0,0,.173-.064.2.2,0,0,1,.09-.021.2.2,0,0,1,.132.05.162.162,0,0,1,.061.132.149.149,0,0,1-.078.136.951.951,0,0,1-.28.114,1.351,1.351,0,0,1-.308.035,1.025,1.025,0,0,1-.366-.064.859.859,0,0,1-.293-.182.834.834,0,0,1-.192-.285.974.974,0,0,1-.07-.374.944.944,0,0,1,.066-.351.874.874,0,0,1,.184-.287.876.876,0,0,1,.282-.193.891.891,0,0,1,.36-.071.887.887,0,0,1,.273.041.834.834,0,0,1,.23.116.8.8,0,0,1,.18.183.983.983,0,0,1,.123.241c.012.041.023.083.034.129A.573.573,0,0,1,432.13-58.648Zm-.431-.1a.449.449,0,0,0-.029-.129.383.383,0,0,0-.075-.123.405.405,0,0,0-.13-.092.449.449,0,0,0-.191-.037.436.436,0,0,0-.184.035.4.4,0,0,0-.126.091.439.439,0,0,0-.079.123.477.477,0,0,0-.036.132Z" transform="translate(-400.713 60.124)" fill="#fff"/>
    <path id="Path_369" data-name="Path 369" d="M441.044-58.842a.252.252,0,0,1-.183.075.247.247,0,0,1-.18-.075.242.242,0,0,1-.075-.178v-1.433l-.64,1.594a.158.158,0,0,1-.055.066.145.145,0,0,1-.087.027.13.13,0,0,1-.081-.027.162.162,0,0,1-.053-.066l-.64-1.594v1.437a.237.237,0,0,1-.075.176.25.25,0,0,1-.182.073.239.239,0,0,1-.177-.073.24.24,0,0,1-.073-.176v-1.865a.275.275,0,0,1,.084-.2.275.275,0,0,1,.2-.084.747.747,0,0,1,.314.029.331.331,0,0,1,.2.2l.485,1.2.485-1.2a.37.37,0,0,1,.136-.168.361.361,0,0,1,.21-.064.583.583,0,0,1,.168,0,.455.455,0,0,1,.148.044.271.271,0,0,1,.1.095.267.267,0,0,1,.039.15v1.861A.244.244,0,0,1,441.044-58.842Z" transform="translate(-405.866 61.189)" fill="#fff"/>
    <path id="Path_370" data-name="Path 370" d="M448.082-57.927a.219.219,0,0,1-.064.159.211.211,0,0,1-.157.066h-.035a.184.184,0,0,1-.139-.059.193.193,0,0,1-.057-.14.606.606,0,0,1-.231.162.812.812,0,0,1-.314.059.665.665,0,0,1-.21-.035.621.621,0,0,1-.193-.106A.55.55,0,0,1,446.54-58a.547.547,0,0,1-.055-.254.556.556,0,0,1,.055-.258.513.513,0,0,1,.141-.173.564.564,0,0,1,.193-.1.765.765,0,0,1,.21-.031.9.9,0,0,1,.315.054.532.532,0,0,1,.23.159v-.233a.253.253,0,0,0-.1-.212.44.44,0,0,0-.274-.079.812.812,0,0,0-.2.025.588.588,0,0,0-.186.086.162.162,0,0,1-.082.025.179.179,0,0,1-.116-.046.157.157,0,0,1-.055-.127.175.175,0,0,1,.025-.089.32.32,0,0,1,.125-.109.908.908,0,0,1,.187-.074,1.6,1.6,0,0,1,.2-.042,1.34,1.34,0,0,1,.177-.014,1.219,1.219,0,0,1,.281.032.666.666,0,0,1,.241.109.55.55,0,0,1,.168.2.69.69,0,0,1,.062.31Zm-.453-.21v-.214a.346.346,0,0,0-.156-.114.579.579,0,0,0-.21-.038.386.386,0,0,0-.231.068.224.224,0,0,0-.1.194.216.216,0,0,0,.1.188.393.393,0,0,0,.231.066.594.594,0,0,0,.21-.037A.351.351,0,0,0,447.63-58.137Z" transform="translate(-410.882 60.124)" fill="#fff"/>
    <path id="Path_371" data-name="Path 371" d="M453.589-57.769a.221.221,0,0,1-.162.066.216.216,0,0,1-.158-.066.217.217,0,0,1-.066-.159v-.838a.311.311,0,0,0-.085-.251.358.358,0,0,0-.232-.069.425.425,0,0,0-.127.018.5.5,0,0,0-.109.046.488.488,0,0,0-.089.064.5.5,0,0,0-.068.075v.955a.214.214,0,0,1-.066.159.22.22,0,0,1-.162.066.217.217,0,0,1-.159-.066.215.215,0,0,1-.066-.159v-1.319a.21.21,0,0,1,.066-.157.229.229,0,0,1,.166-.064.212.212,0,0,1,.157.064.213.213,0,0,1,.065.157v.025a.794.794,0,0,1,.1-.1.66.66,0,0,1,.136-.085.839.839,0,0,1,.167-.061.8.8,0,0,1,.2-.023.551.551,0,0,1,.423.148.567.567,0,0,1,.137.4v1.013A.216.216,0,0,1,453.589-57.769Z" transform="translate(-414.391 60.124)" fill="#fff"/>
    <path id="Path_372" data-name="Path 372" d="M458.94-57.927a.219.219,0,0,1-.064.159.211.211,0,0,1-.157.066h-.036a.185.185,0,0,1-.139-.059.194.194,0,0,1-.057-.14.6.6,0,0,1-.232.162.812.812,0,0,1-.314.059.667.667,0,0,1-.21-.035.62.62,0,0,1-.192-.106A.542.542,0,0,1,457.4-58a.543.543,0,0,1-.056-.254.551.551,0,0,1,.056-.258.506.506,0,0,1,.141-.173.563.563,0,0,1,.192-.1.767.767,0,0,1,.21-.031.9.9,0,0,1,.316.054.531.531,0,0,1,.23.159v-.233a.254.254,0,0,0-.1-.212.442.442,0,0,0-.275-.079.813.813,0,0,0-.2.025.589.589,0,0,0-.185.086.164.164,0,0,1-.082.025.18.18,0,0,1-.116-.046.158.158,0,0,1-.055-.127.175.175,0,0,1,.025-.089.322.322,0,0,1,.125-.109.927.927,0,0,1,.187-.074,1.613,1.613,0,0,1,.2-.042,1.335,1.335,0,0,1,.177-.014,1.22,1.22,0,0,1,.282.032.666.666,0,0,1,.241.109.546.546,0,0,1,.168.2.684.684,0,0,1,.062.31Zm-.453-.21v-.214a.346.346,0,0,0-.156-.114.577.577,0,0,0-.21-.038.386.386,0,0,0-.231.068.224.224,0,0,0-.1.194.216.216,0,0,0,.1.188.393.393,0,0,0,.231.066.592.592,0,0,0,.21-.037A.351.351,0,0,0,458.488-58.137Z" transform="translate(-417.74 60.124)" fill="#fff"/>
    <path id="Path_373" data-name="Path 373" d="M464.344-57.842a.855.855,0,0,1-.085.4.684.684,0,0,1-.22.249.846.846,0,0,1-.3.127,1.536,1.536,0,0,1-.325.036,1.732,1.732,0,0,1-.178-.011,1.454,1.454,0,0,1-.2-.035.827.827,0,0,1-.175-.066.3.3,0,0,1-.118-.1.185.185,0,0,1-.028-.1.177.177,0,0,1,.057-.135.186.186,0,0,1,.132-.054.205.205,0,0,1,.1.025.66.66,0,0,0,.194.082.9.9,0,0,0,.216.025.735.735,0,0,0,.166-.02.424.424,0,0,0,.153-.071.363.363,0,0,0,.112-.135.469.469,0,0,0,.043-.213v-.175a.759.759,0,0,1-.238.2.616.616,0,0,1-.294.071.787.787,0,0,1-.3-.057.666.666,0,0,1-.241-.168.794.794,0,0,1-.161-.274,1.12,1.12,0,0,1-.059-.378,1.131,1.131,0,0,1,.058-.375.792.792,0,0,1,.159-.276.67.67,0,0,1,.241-.169.805.805,0,0,1,.3-.057.664.664,0,0,1,.293.066.688.688,0,0,1,.24.2v-.018a.218.218,0,0,1,.066-.159.221.221,0,0,1,.164-.066.213.213,0,0,1,.158.066.218.218,0,0,1,.065.159Zm-.453-.492v-.556a.366.366,0,0,0-.072-.078.537.537,0,0,0-.1-.063.519.519,0,0,0-.109-.041.472.472,0,0,0-.115-.014.466.466,0,0,0-.177.032.36.36,0,0,0-.138.094.433.433,0,0,0-.09.15.562.562,0,0,0-.032.2.564.564,0,0,0,.032.2.435.435,0,0,0,.09.15.364.364,0,0,0,.138.094.466.466,0,0,0,.177.032.491.491,0,0,0,.115-.014.519.519,0,0,0,.109-.041.537.537,0,0,0,.1-.062A.375.375,0,0,0,463.891-58.333Z" transform="translate(-421.058 60.124)" fill="#fff"/>
    <path id="Path_374" data-name="Path 374" d="M470.006-58.648a.2.2,0,0,1-.061.145.2.2,0,0,1-.15.062h-1.062a.466.466,0,0,0,.048.155.417.417,0,0,0,.1.126.494.494,0,0,0,.15.086.582.582,0,0,0,.2.032.731.731,0,0,0,.162-.021.728.728,0,0,0,.173-.064.2.2,0,0,1,.09-.021.2.2,0,0,1,.132.05.162.162,0,0,1,.061.132.149.149,0,0,1-.078.136.95.95,0,0,1-.28.114,1.35,1.35,0,0,1-.308.035,1.025,1.025,0,0,1-.366-.064.859.859,0,0,1-.293-.182.835.835,0,0,1-.192-.285.974.974,0,0,1-.07-.374.943.943,0,0,1,.066-.351.873.873,0,0,1,.184-.287.876.876,0,0,1,.282-.193.892.892,0,0,1,.36-.071.887.887,0,0,1,.273.041.833.833,0,0,1,.23.116.8.8,0,0,1,.18.183.982.982,0,0,1,.123.241c.012.041.023.083.034.129A.571.571,0,0,1,470.006-58.648Zm-.431-.1a.446.446,0,0,0-.029-.129A.378.378,0,0,0,469.47-59a.4.4,0,0,0-.13-.092.449.449,0,0,0-.191-.037.436.436,0,0,0-.183.035.4.4,0,0,0-.126.091.438.438,0,0,0-.078.123.475.475,0,0,0-.036.132Z" transform="translate(-424.633 60.124)" fill="#fff"/>
    <path id="Path_375" data-name="Path 375" d="M474.933-59.239a.206.206,0,0,1-.062.161.29.29,0,0,1-.155.071.708.708,0,0,0-.2.057.39.39,0,0,0-.155.125v.934a.218.218,0,0,1-.064.159.21.21,0,0,1-.157.066h-.007a.217.217,0,0,1-.159-.066.215.215,0,0,1-.066-.159V-59.21a.21.21,0,0,1,.066-.157.229.229,0,0,1,.166-.064.213.213,0,0,1,.157.064.213.213,0,0,1,.064.157v.036q.032-.043.07-.087a.508.508,0,0,1,.084-.08.459.459,0,0,1,.1-.059.292.292,0,0,1,.118-.024.2.2,0,0,1,.15.054A.185.185,0,0,1,474.933-59.239Z" transform="translate(-428.202 60.087)" fill="#fff"/>
  </g>
</svg>
